<svg width="666" height="165" viewBox="0 0 666 165" fill="none" xmlns="http://www.w3.org/2000/svg">
<g clip-path="url(#clip0)">
<path d="M42.4972 87.5884C34.7584 87.5884 27.6449 85.7904 21.157 82.1947C14.7471 78.5991 9.62703 73.5961 5.79676 67.1863C2.04464 60.6982 0.168579 53.4285 0.168579 45.3772C0.168579 37.3258 2.04464 30.095 5.79676 23.6853C9.62703 17.2754 14.7471 12.2726 21.157 8.6768C27.6449 5.08104 34.7584 3.28314 42.4972 3.28314C50.2359 3.28314 57.31 5.08104 63.7201 8.6768C70.2079 12.2726 75.289 17.2754 78.963 23.6853C82.7151 30.095 84.5912 37.3258 84.5912 45.3772C84.5912 53.4285 82.7151 60.6982 78.963 67.1863C75.2109 73.5961 70.1298 78.5991 63.7201 82.1947C57.31 85.7904 50.2359 87.5884 42.4972 87.5884ZM42.4972 69.2969C49.0634 69.2969 54.3006 67.1082 58.2091 62.7307C62.1958 58.3531 64.1891 52.5688 64.1891 45.3772C64.1891 38.1074 62.1958 32.3228 58.2091 28.0236C54.3006 23.6461 49.0634 21.4574 42.4972 21.4574C35.8526 21.4574 30.5373 23.6072 26.5507 27.9064C22.6422 32.2056 20.688 38.0293 20.688 45.3772C20.688 52.6469 22.6422 58.4704 26.5507 62.8479C30.5373 67.1471 35.8526 69.2969 42.4972 69.2969ZM233.967 4.45568V20.5194H212.158V86.7676H192.108V20.5194H170.299V4.45568H233.967ZM508.559 4.45568L487.102 86.7676H462.83L449.698 32.5965L436.096 86.7676H411.825L390.954 4.45568H412.411L424.254 64.3722L438.91 4.45568H460.954L475.025 64.3722L486.984 4.45568H508.559Z" fill="#373737"/>
<path d="M135.612 20.6366C143.273 20.6366 149.37 23.138 153.903 28.1408C158.516 33.0655 160.821 39.8662 160.821 48.543V86.7676H140.888V51.2398C140.888 46.8622 139.755 43.4619 137.488 41.0387C135.221 38.6156 132.172 37.4039 128.342 37.4039C124.512 37.4039 121.463 38.6156 119.196 41.0387C116.929 43.4619 115.796 46.8622 115.796 51.2398V86.7676H95.7457V21.3401H115.796V30.0169C117.829 27.1247 120.564 24.8577 124.004 23.2162C127.443 21.4965 131.313 20.6366 135.612 20.6366ZM284.248 20.6366C291.753 20.6366 297.772 23.138 302.305 28.1408C306.838 33.0655 309.106 39.8662 309.106 48.543V86.7676H289.173V51.2398C289.173 46.8622 288.04 43.4619 285.773 41.0387C283.505 38.6156 280.456 37.4039 276.627 37.4039C272.797 37.4039 269.749 38.6156 267.481 41.0387C265.213 43.4619 264.081 46.8622 264.081 51.2398V86.7676H244.03V0H264.081V30.1342C266.114 27.242 268.888 24.9358 272.406 23.2162C275.923 21.4965 279.87 20.6366 284.248 20.6366ZM384.714 52.9986C384.714 54.8746 384.596 56.8288 384.362 58.8613H338.985C339.299 62.926 340.589 66.0529 342.854 68.2415C345.199 70.3521 348.053 71.4074 351.414 71.4074C356.418 71.4074 359.896 69.2968 361.849 65.0757H383.189C382.096 69.3749 380.103 73.2443 377.209 76.6838C374.395 80.1233 370.84 82.8202 366.539 84.7743C362.241 86.7284 357.433 87.7056 352.117 87.7056C345.708 87.7056 340.002 86.3378 334.998 83.6018C329.996 80.8658 326.087 76.9575 323.273 71.8764C320.459 66.7953 319.052 60.8546 319.052 54.0539C319.052 47.2532 320.421 41.3124 323.155 36.2313C325.97 31.1503 329.879 27.242 334.881 24.506C339.885 21.7701 345.631 20.4021 352.117 20.4021C358.449 20.4021 364.077 21.731 369.002 24.3887C373.926 27.0464 377.758 30.8377 380.492 35.7623C383.306 40.687 384.714 46.4324 384.714 52.9986ZM364.194 47.7222C364.194 44.2827 363.022 41.5469 360.677 39.5144C358.331 37.482 355.4 36.4658 351.883 36.4658C348.522 36.4658 345.668 37.443 343.323 39.3972C341.058 41.3513 339.651 44.1265 339.102 47.7222H364.194ZM514.628 53.9366C514.628 47.214 515.878 41.3124 518.38 36.2313C520.96 31.1503 524.438 27.242 528.816 24.506C533.192 21.7701 538.079 20.4021 543.473 20.4021C548.083 20.4021 552.109 21.3401 555.55 23.2162C559.067 25.0923 561.764 27.5546 563.64 30.6032V21.3401H583.69V86.7676H563.64V77.5046C561.684 80.5532 558.95 83.0155 555.432 84.8915C551.992 86.7676 547.966 87.7056 543.355 87.7056C538.039 87.7056 533.192 86.3378 528.816 83.6018C524.438 80.7877 520.96 76.8402 518.38 71.7592C515.878 66.6 514.628 60.6592 514.628 53.9366ZM563.64 54.0539C563.64 49.0511 562.233 45.1034 559.419 42.2113C556.682 39.3191 553.322 37.8729 549.335 37.8729C545.349 37.8729 541.948 39.3191 539.134 42.2113C536.397 45.0254 535.03 48.9339 535.03 53.9366C535.03 58.9394 536.397 62.926 539.134 65.8965C541.948 68.7887 545.349 70.2349 549.335 70.2349C553.322 70.2349 556.682 68.7887 559.419 65.8965C562.233 63.0043 563.64 59.0566 563.64 54.0539ZM665.029 21.3401L623.99 117.84H602.416L617.424 84.5398L590.808 21.3401H613.203L628.329 62.2616L643.337 21.3401H665.029Z" fill="white"/>
<path d="M185.609 154.775H182.621L170.605 136.553V154.775H167.617V131.859H170.605L182.621 150.047V131.859H185.609V154.775ZM198.548 155.07C196.863 155.07 195.331 154.687 193.952 153.921C192.595 153.155 191.522 152.071 190.735 150.671C189.968 149.248 189.585 147.606 189.585 145.746C189.585 143.907 189.979 142.288 190.767 140.887C191.577 139.464 192.672 138.381 194.05 137.637C195.429 136.871 196.972 136.488 198.68 136.488C200.387 136.488 201.93 136.871 203.309 137.637C204.688 138.381 205.771 139.453 206.559 140.854C207.369 142.255 207.774 143.886 207.774 145.746C207.774 147.606 207.358 149.248 206.526 150.671C205.716 152.071 204.611 153.155 203.21 153.921C201.81 154.687 200.256 155.07 198.548 155.07ZM198.548 152.444C199.621 152.444 200.628 152.192 201.569 151.688C202.51 151.185 203.265 150.43 203.834 149.423C204.425 148.416 204.721 147.191 204.721 145.746C204.721 144.301 204.436 143.076 203.867 142.069C203.298 141.062 202.554 140.318 201.634 139.836C200.715 139.333 199.719 139.081 198.647 139.081C197.552 139.081 196.546 139.333 195.626 139.836C194.729 140.318 194.007 141.062 193.46 142.069C192.912 143.076 192.639 144.301 192.639 145.746C192.639 147.212 192.901 148.449 193.427 149.456C193.974 150.463 194.696 151.218 195.594 151.721C196.491 152.203 197.476 152.444 198.548 152.444ZM244.422 136.783L238.808 154.775H235.722L231.388 140.493L227.054 154.775H223.968L218.321 136.783H221.374L225.511 151.885L229.976 136.783H233.029L237.396 151.918L241.467 136.783H244.422ZM246.27 145.713C246.27 143.875 246.643 142.266 247.386 140.887C248.13 139.486 249.147 138.403 250.44 137.637C251.753 136.871 253.209 136.488 254.806 136.488C256.382 136.488 257.749 136.827 258.91 137.505C260.071 138.184 260.934 139.037 261.504 140.066V136.783H264.524V154.775H261.504V151.426C260.913 152.476 260.026 153.352 258.844 154.052C257.683 154.731 256.328 155.07 254.773 155.07C253.176 155.07 251.732 154.676 250.44 153.888C249.147 153.1 248.13 151.995 247.386 150.572C246.643 149.149 246.27 147.53 246.27 145.713ZM261.504 145.746C261.504 144.389 261.229 143.207 260.683 142.2C260.136 141.194 259.391 140.427 258.45 139.902C257.531 139.355 256.513 139.081 255.397 139.081C254.281 139.081 253.263 139.344 252.344 139.869C251.424 140.395 250.69 141.161 250.144 142.167C249.598 143.174 249.323 144.356 249.323 145.713C249.323 147.092 249.598 148.296 250.144 149.325C250.69 150.331 251.424 151.108 252.344 151.656C253.263 152.181 254.281 152.444 255.397 152.444C256.513 152.444 257.531 152.181 258.45 151.656C259.391 151.108 260.136 150.331 260.683 149.325C261.229 148.296 261.504 147.103 261.504 145.746ZM271.116 133.861C270.546 133.861 270.065 133.664 269.671 133.27C269.278 132.876 269.081 132.395 269.081 131.826C269.081 131.257 269.278 130.775 269.671 130.381C270.065 129.987 270.546 129.79 271.116 129.79C271.662 129.79 272.122 129.987 272.495 130.381C272.889 130.775 273.086 131.257 273.086 131.826C273.086 132.395 272.889 132.876 272.495 133.27C272.122 133.664 271.662 133.861 271.116 133.861ZM272.561 136.783V154.775H269.573V136.783H272.561ZM281.296 139.245V149.85C281.296 150.725 281.484 151.349 281.854 151.721C282.227 152.071 282.872 152.247 283.791 152.247H285.991V154.775H283.299C281.636 154.775 280.388 154.392 279.556 153.625C278.726 152.859 278.308 151.601 278.308 149.85V139.245H275.977V136.783H278.308V132.252H281.296V136.783H285.991V139.245H281.296ZM291.155 133.861C290.585 133.861 290.104 133.664 289.71 133.27C289.316 132.876 289.119 132.395 289.119 131.826C289.119 131.257 289.316 130.775 289.71 130.381C290.104 129.987 290.585 129.79 291.155 129.79C291.701 129.79 292.161 129.987 292.534 130.381C292.928 130.775 293.125 131.257 293.125 131.826C293.125 132.395 292.928 132.876 292.534 133.27C292.161 133.664 291.701 133.861 291.155 133.861ZM292.599 136.783V154.775H289.612V136.783H292.599ZM306.456 136.455C308.647 136.455 310.419 137.122 311.775 138.458C313.133 139.771 313.81 141.675 313.81 144.17V154.775H310.856V144.597C310.856 142.802 310.408 141.434 309.51 140.493C308.614 139.53 307.387 139.048 305.832 139.048C304.257 139.048 303 139.541 302.057 140.526C301.138 141.511 300.678 142.944 300.678 144.827V154.775H297.69V136.783H300.678V139.344C301.269 138.425 302.069 137.713 303.075 137.21C304.104 136.706 305.232 136.455 306.456 136.455ZM326.11 136.488C327.665 136.488 329.023 136.827 330.181 137.505C331.363 138.184 332.24 139.037 332.808 140.066V136.783H335.828V155.169C335.828 156.81 335.479 158.266 334.778 159.535C334.079 160.826 333.07 161.833 331.757 162.555C330.467 163.278 328.957 163.639 327.227 163.639C324.863 163.639 322.893 163.081 321.317 161.965C319.741 160.848 318.812 159.327 318.526 157.401H321.481C321.809 158.495 322.489 159.371 323.517 160.028C324.546 160.706 325.782 161.045 327.227 161.045C328.868 161.045 330.205 160.531 331.232 159.502C332.283 158.473 332.808 157.029 332.808 155.169V151.393C332.217 152.444 331.342 153.319 330.181 154.019C329.023 154.72 327.665 155.07 326.11 155.07C324.513 155.07 323.057 154.676 321.744 153.888C320.454 153.1 319.436 151.995 318.69 150.572C317.947 149.149 317.574 147.53 317.574 145.713C317.574 143.875 317.947 142.266 318.69 140.887C319.436 139.486 320.454 138.403 321.744 137.637C323.057 136.871 324.513 136.488 326.11 136.488ZM332.808 145.746C332.808 144.389 332.536 143.207 331.987 142.2C331.441 141.194 330.697 140.427 329.755 139.902C328.835 139.355 327.817 139.081 326.701 139.081C325.585 139.081 324.567 139.344 323.648 139.869C322.729 140.395 321.997 141.161 321.448 142.167C320.902 143.174 320.627 144.356 320.627 145.713C320.627 147.092 320.902 148.296 321.448 149.325C321.997 150.331 322.729 151.108 323.648 151.656C324.567 152.181 325.585 152.444 326.701 152.444C327.817 152.444 328.835 152.181 329.755 151.656C330.697 151.108 331.441 150.331 331.987 149.325C332.536 148.296 332.808 147.103 332.808 145.746ZM348.515 145.713C348.515 143.875 348.886 142.266 349.631 140.887C350.375 139.486 351.392 138.403 352.685 137.637C353.998 136.871 355.452 136.488 357.051 136.488C358.627 136.488 359.994 136.827 361.155 137.505C362.313 138.184 363.179 139.037 363.749 140.066V136.783H366.769V154.775H363.749V151.426C363.158 152.476 362.271 153.352 361.089 154.052C359.929 154.731 358.571 155.07 357.018 155.07C355.419 155.07 353.974 154.676 352.685 153.888C351.392 153.1 350.375 151.995 349.631 150.572C348.886 149.149 348.515 147.53 348.515 145.713ZM363.749 145.746C363.749 144.389 363.474 143.207 362.928 142.2C362.379 141.194 361.636 140.427 360.695 139.902C359.776 139.355 358.758 139.081 357.642 139.081C356.526 139.081 355.508 139.344 354.589 139.869C353.67 140.395 352.936 141.161 352.389 142.167C351.84 143.174 351.568 144.356 351.568 145.713C351.568 147.092 351.84 148.296 352.389 149.325C352.936 150.331 353.67 151.108 354.589 151.656C355.508 152.181 356.526 152.444 357.642 152.444C358.758 152.444 359.776 152.181 360.695 151.656C361.636 151.108 362.379 150.331 362.928 149.325C363.474 148.296 363.749 147.103 363.749 145.746ZM380.584 136.455C382.772 136.455 384.545 137.122 385.903 138.458C387.258 139.771 387.938 141.675 387.938 144.17V154.775H384.983V144.597C384.983 142.802 384.533 141.434 383.637 140.493C382.739 139.53 381.513 139.048 379.96 139.048C378.384 139.048 377.125 139.541 376.185 140.526C375.265 141.511 374.806 142.944 374.806 144.827V154.775H371.818V136.783H374.806V139.344C375.397 138.425 376.194 137.713 377.202 137.21C378.229 136.706 379.357 136.455 380.584 136.455ZM408.314 136.783L397.48 163.245H394.394L397.94 154.578L390.684 136.783H394L399.647 151.36L405.228 136.783H408.314ZM432.952 136.455C434.354 136.455 435.602 136.75 436.694 137.341C437.79 137.91 438.655 138.775 439.288 139.935C439.924 141.095 440.24 142.507 440.24 144.17V154.775H437.285V144.597C437.285 142.802 436.837 141.434 435.939 140.493C435.065 139.53 433.871 139.048 432.361 139.048C430.808 139.048 429.57 139.552 428.651 140.559C427.732 141.544 427.272 142.977 427.272 144.86V154.775H424.317V144.597C424.317 142.802 423.869 141.434 422.971 140.493C422.096 139.53 420.903 139.048 419.392 139.048C417.84 139.048 416.602 139.552 415.683 140.559C414.763 141.544 414.304 142.977 414.304 144.86V154.775H411.316V136.783H414.304V139.377C414.895 138.436 415.683 137.713 416.667 137.21C417.676 136.706 418.78 136.455 419.983 136.455C421.494 136.455 422.83 136.794 423.989 137.473C425.15 138.151 426.015 139.147 426.582 140.46C427.087 139.191 427.919 138.206 429.078 137.505C430.238 136.805 431.531 136.455 432.952 136.455ZM452.988 155.07C451.304 155.07 449.77 154.687 448.392 153.921C447.036 153.155 445.962 152.071 445.174 150.671C444.41 149.248 444.025 147.606 444.025 145.746C444.025 143.907 444.419 142.288 445.207 140.887C446.018 139.464 447.111 138.381 448.49 137.637C449.869 136.871 451.412 136.488 453.119 136.488C454.826 136.488 456.37 136.871 457.748 137.637C459.127 138.381 460.211 139.453 460.999 140.854C461.81 142.255 462.213 143.886 462.213 145.746C462.213 147.606 461.798 149.248 460.966 150.671C460.157 152.071 459.052 153.155 457.65 153.921C456.25 154.687 454.695 155.07 452.988 155.07ZM452.988 152.444C454.062 152.444 455.068 152.192 456.008 151.688C456.951 151.185 457.706 150.43 458.274 149.423C458.865 148.416 459.16 147.191 459.16 145.746C459.16 144.301 458.876 143.076 458.307 142.069C457.739 141.062 456.993 140.318 456.074 139.836C455.155 139.333 454.16 139.081 453.086 139.081C451.994 139.081 450.985 139.333 450.066 139.836C449.17 140.318 448.448 141.062 447.899 142.069C447.353 143.076 447.078 144.301 447.078 145.746C447.078 147.212 447.341 148.449 447.866 149.456C448.415 150.463 449.137 151.218 450.033 151.721C450.931 152.203 451.916 152.444 452.988 152.444ZM469.129 139.705C469.654 138.676 470.4 137.878 471.362 137.308C472.347 136.739 473.54 136.455 474.94 136.455V139.541H474.152C470.803 139.541 469.129 141.358 469.129 144.991V154.775H466.141V136.783H469.129V139.705ZM494.805 145.089C494.805 145.659 494.772 146.26 494.707 146.895H480.327C480.437 148.668 481.037 150.058 482.132 151.065C483.249 152.05 484.595 152.542 486.171 152.542C487.463 152.542 488.535 152.247 489.388 151.656C490.263 151.043 490.877 150.233 491.227 149.226H494.444C493.963 150.955 493 152.367 491.555 153.461C490.11 154.534 488.316 155.07 486.171 155.07C484.463 155.07 482.932 154.687 481.574 153.921C480.24 153.155 479.189 152.071 478.423 150.671C477.656 149.248 477.273 147.606 477.273 145.746C477.273 143.886 477.646 142.255 478.39 140.854C479.133 139.453 480.174 138.381 481.509 137.637C482.866 136.871 484.419 136.488 486.171 136.488C487.878 136.488 489.388 136.86 490.701 137.604C492.015 138.348 493.021 139.377 493.722 140.69C494.444 141.981 494.805 143.448 494.805 145.089ZM491.719 144.466C491.719 143.328 491.468 142.353 490.964 141.544C490.46 140.712 489.77 140.088 488.896 139.672C488.042 139.234 487.09 139.016 486.039 139.016C484.529 139.016 483.237 139.497 482.165 140.46C481.115 141.423 480.512 142.758 480.36 144.466H491.719Z" fill="#838383"/>
</g>
<defs>
<clipPath id="clip0">
<rect width="666" height="164.155" fill="white"/>
</clipPath>
</defs>
</svg>
