<svg width="918" height="275" viewBox="0 0 918 275" fill="none" xmlns="http://www.w3.org/2000/svg">
<rect width="918" height="275" rx="24" fill="white" fill-opacity="0.6"/>
<g clip-path="url(#clip0)">
<path d="M73.4972 143.074C65.7584 143.074 58.6449 141.276 52.157 137.681C45.7471 134.085 40.627 129.082 36.7968 122.672C33.0446 116.184 31.1686 108.914 31.1686 100.863C31.1686 92.8118 33.0446 85.581 36.7968 79.1712C40.627 72.7614 45.7471 67.7585 52.157 64.1628C58.6449 60.567 65.7584 58.7691 73.4972 58.7691C81.2359 58.7691 88.31 60.567 94.7201 64.1628C101.208 67.7585 106.289 72.7614 109.963 79.1712C113.715 85.581 115.591 92.8118 115.591 100.863C115.591 108.914 113.715 116.184 109.963 122.672C106.211 129.082 101.13 134.085 94.7201 137.681C88.31 141.276 81.2359 143.074 73.4972 143.074ZM73.4972 124.783C80.0634 124.783 85.3006 122.594 89.2091 118.217C93.1958 113.839 95.1891 108.055 95.1891 100.863C95.1891 93.5934 93.1958 87.8088 89.2091 83.5096C85.3006 79.1321 80.0634 76.9434 73.4972 76.9434C66.8526 76.9434 61.5373 79.0931 57.5507 83.3923C53.6422 87.6916 51.688 93.5153 51.688 100.863C51.688 108.133 53.6422 113.956 57.5507 118.334C61.5373 122.633 66.8526 124.783 73.4972 124.783ZM264.967 59.9416V76.0054H243.158V142.254H223.108V76.0054H201.299V59.9416H264.967ZM539.559 59.9416L518.102 142.254H493.83L480.698 88.0825L467.096 142.254H442.825L421.954 59.9416H443.411L455.254 119.858L469.91 59.9416H491.954L506.025 119.858L517.984 59.9416H539.559Z" fill="#373737"/>
<path d="M166.612 76.1226C174.273 76.1226 180.37 78.624 184.903 83.6268C189.516 88.5515 191.821 95.3522 191.821 104.029V142.254H171.888V106.726C171.888 102.348 170.755 98.9479 168.488 96.5247C166.221 94.1015 163.172 92.8898 159.342 92.8898C155.512 92.8898 152.463 94.1015 150.196 96.5247C147.929 98.9479 146.796 102.348 146.796 106.726V142.254H126.746V76.8261H146.796V85.5029C148.829 82.6107 151.564 80.3437 155.004 78.7022C158.443 76.9824 162.313 76.1226 166.612 76.1226ZM315.248 76.1226C322.753 76.1226 328.772 78.624 333.305 83.6268C337.838 88.5515 340.106 95.3522 340.106 104.029V142.254H320.173V106.726C320.173 102.348 319.04 98.9479 316.773 96.5247C314.505 94.1015 311.456 92.8898 307.627 92.8898C303.797 92.8898 300.749 94.1015 298.481 96.5247C296.213 98.9479 295.081 102.348 295.081 106.726V142.254H275.03V55.486H295.081V85.6201C297.114 82.7279 299.888 80.4218 303.406 78.7022C306.923 76.9824 310.87 76.1226 315.248 76.1226ZM415.714 108.485C415.714 110.361 415.596 112.315 415.362 114.347H369.985C370.299 118.412 371.589 121.539 373.854 123.728C376.199 125.838 379.053 126.893 382.414 126.893C387.418 126.893 390.896 124.783 392.849 120.562H414.189C413.096 124.861 411.103 128.73 408.209 132.17C405.395 135.609 401.84 138.306 397.539 140.26C393.241 142.214 388.433 143.192 383.117 143.192C376.708 143.192 371.002 141.824 365.998 139.088C360.996 136.352 357.087 132.443 354.273 127.362C351.459 122.281 350.052 116.341 350.052 109.54C350.052 102.739 351.421 96.7984 354.155 91.7173C356.97 86.6362 360.879 82.7279 365.881 79.9919C370.885 77.256 376.631 75.8881 383.117 75.8881C389.449 75.8881 395.077 77.217 400.002 79.8747C404.926 82.5324 408.758 86.3236 411.492 91.2483C414.306 96.1729 415.714 101.918 415.714 108.485ZM395.194 103.208C395.194 99.7686 394.022 97.0329 391.677 95.0004C389.332 92.9679 386.4 91.9518 382.883 91.9518C379.522 91.9518 376.668 92.929 374.323 94.8831C372.058 96.8373 370.651 99.6124 370.102 103.208H395.194ZM545.628 109.423C545.628 102.7 546.878 96.7984 549.38 91.7173C551.96 86.6362 555.438 82.7279 559.816 79.9919C564.192 77.256 569.079 75.8881 574.473 75.8881C579.083 75.8881 583.109 76.8261 586.55 78.7022C590.067 80.5782 592.764 83.0405 594.64 86.0891V76.8261H614.69V142.254H594.64V132.991C592.684 136.039 589.95 138.501 586.432 140.378C582.992 142.254 578.966 143.192 574.355 143.192C569.039 143.192 564.192 141.824 559.816 139.088C555.438 136.274 551.96 132.326 549.38 127.245C546.878 122.086 545.628 116.145 545.628 109.423ZM594.64 109.54C594.64 104.537 593.233 100.589 590.419 97.6972C587.682 94.8051 584.322 93.3588 580.335 93.3588C576.349 93.3588 572.948 94.8051 570.134 97.6972C567.397 100.511 566.03 104.42 566.03 109.423C566.03 114.425 567.397 118.412 570.134 121.382C572.948 124.275 576.349 125.721 580.335 125.721C584.322 125.721 587.682 124.275 590.419 121.382C593.233 118.49 594.64 114.543 594.64 109.54ZM696.029 76.8261L654.99 173.326H633.416L648.424 140.026L621.808 76.8261H644.203L659.329 117.748L674.337 76.8261H696.029Z" fill="#264A75"/>
<path d="M216.609 210.261H213.621L201.605 192.039V210.261H198.617V187.344H201.605L213.621 205.533V187.344H216.609V210.261ZM229.548 210.556C227.863 210.556 226.331 210.173 224.952 209.407C223.595 208.641 222.522 207.557 221.735 206.157C220.968 204.734 220.585 203.092 220.585 201.232C220.585 199.393 220.979 197.774 221.767 196.373C222.577 194.95 223.672 193.867 225.05 193.123C226.429 192.357 227.972 191.974 229.68 191.974C231.387 191.974 232.93 192.357 234.309 193.123C235.688 193.867 236.771 194.939 237.559 196.34C238.369 197.741 238.774 199.372 238.774 201.232C238.774 203.092 238.358 204.734 237.526 206.157C236.716 207.557 235.611 208.641 234.21 209.407C232.81 210.173 231.256 210.556 229.548 210.556ZM229.548 207.93C230.621 207.93 231.628 207.678 232.569 207.174C233.51 206.671 234.265 205.916 234.834 204.909C235.425 203.902 235.721 202.677 235.721 201.232C235.721 199.787 235.436 198.562 234.867 197.555C234.298 196.548 233.554 195.804 232.634 195.322C231.715 194.819 230.719 194.567 229.647 194.567C228.552 194.567 227.546 194.819 226.626 195.322C225.729 195.804 225.007 196.548 224.46 197.555C223.912 198.562 223.639 199.787 223.639 201.232C223.639 202.698 223.901 203.935 224.427 204.942C224.974 205.949 225.696 206.704 226.594 207.207C227.491 207.689 228.476 207.93 229.548 207.93ZM275.422 192.269L269.808 210.261H266.722L262.388 195.979L258.054 210.261H254.968L249.321 192.269H252.374L256.511 207.371L260.976 192.269H264.029L268.396 207.404L272.467 192.269H275.422ZM277.27 201.199C277.27 199.361 277.643 197.752 278.386 196.373C279.13 194.972 280.147 193.889 281.44 193.123C282.753 192.357 284.209 191.974 285.806 191.974C287.382 191.974 288.749 192.313 289.91 192.991C291.071 193.67 291.934 194.523 292.504 195.552V192.269H295.524V210.261H292.504V206.912C291.913 207.962 291.026 208.838 289.844 209.538C288.683 210.217 287.328 210.556 285.773 210.556C284.176 210.556 282.732 210.162 281.44 209.374C280.147 208.586 279.13 207.481 278.386 206.058C277.643 204.635 277.27 203.016 277.27 201.199ZM292.504 201.232C292.504 199.875 292.229 198.693 291.683 197.686C291.136 196.68 290.391 195.913 289.45 195.388C288.531 194.841 287.513 194.567 286.397 194.567C285.281 194.567 284.263 194.83 283.344 195.355C282.424 195.881 281.69 196.647 281.144 197.653C280.598 198.66 280.323 199.842 280.323 201.199C280.323 202.578 280.598 203.782 281.144 204.811C281.69 205.817 282.424 206.594 283.344 207.142C284.263 207.667 285.281 207.93 286.397 207.93C287.513 207.93 288.531 207.667 289.45 207.142C290.391 206.594 291.136 205.817 291.683 204.811C292.229 203.782 292.504 202.589 292.504 201.232ZM302.116 189.347C301.546 189.347 301.065 189.15 300.671 188.756C300.278 188.362 300.081 187.881 300.081 187.312C300.081 186.742 300.278 186.261 300.671 185.867C301.065 185.473 301.546 185.276 302.116 185.276C302.662 185.276 303.122 185.473 303.495 185.867C303.889 186.261 304.086 186.742 304.086 187.312C304.086 187.881 303.889 188.362 303.495 188.756C303.122 189.15 302.662 189.347 302.116 189.347ZM303.561 192.269V210.261H300.573V192.269H303.561ZM312.296 194.731V205.336C312.296 206.211 312.484 206.835 312.854 207.207C313.227 207.557 313.872 207.733 314.791 207.733H316.991V210.261H314.299C312.636 210.261 311.388 209.878 310.556 209.111C309.726 208.345 309.308 207.087 309.308 205.336V194.731H306.977V192.269H309.308V187.738H312.296V192.269H316.991V194.731H312.296ZM322.155 189.347C321.585 189.347 321.104 189.15 320.71 188.756C320.316 188.362 320.119 187.881 320.119 187.312C320.119 186.742 320.316 186.261 320.71 185.867C321.104 185.473 321.585 185.276 322.155 185.276C322.701 185.276 323.161 185.473 323.534 185.867C323.928 186.261 324.125 186.742 324.125 187.312C324.125 187.881 323.928 188.362 323.534 188.756C323.161 189.15 322.701 189.347 322.155 189.347ZM323.599 192.269V210.261H320.612V192.269H323.599ZM337.456 191.941C339.647 191.941 341.419 192.608 342.775 193.944C344.133 195.257 344.81 197.161 344.81 199.656V210.261H341.856V200.083C341.856 198.288 341.408 196.92 340.51 195.979C339.614 195.016 338.387 194.534 336.832 194.534C335.257 194.534 334 195.027 333.057 196.012C332.138 196.997 331.678 198.43 331.678 200.313V210.261H328.69V192.269H331.678V194.83C332.269 193.911 333.069 193.199 334.075 192.696C335.104 192.192 336.232 191.941 337.456 191.941ZM357.11 191.974C358.665 191.974 360.023 192.313 361.181 192.991C362.363 193.67 363.24 194.523 363.808 195.552V192.269H366.828V210.654C366.828 212.296 366.479 213.752 365.778 215.021C365.079 216.312 364.07 217.319 362.757 218.041C361.467 218.764 359.957 219.125 358.227 219.125C355.863 219.125 353.893 218.567 352.317 217.451C350.741 216.334 349.812 214.813 349.526 212.887H352.481C352.809 213.981 353.489 214.857 354.517 215.513C355.546 216.192 356.782 216.531 358.227 216.531C359.868 216.531 361.205 216.017 362.232 214.988C363.283 213.959 363.808 212.515 363.808 210.654V206.879C363.217 207.93 362.342 208.805 361.181 209.505C360.023 210.206 358.665 210.556 357.11 210.556C355.513 210.556 354.057 210.162 352.744 209.374C351.454 208.586 350.436 207.481 349.69 206.058C348.947 204.635 348.574 203.016 348.574 201.199C348.574 199.361 348.947 197.752 349.69 196.373C350.436 194.972 351.454 193.889 352.744 193.123C354.057 192.357 355.513 191.974 357.11 191.974ZM363.808 201.232C363.808 199.875 363.536 198.693 362.987 197.686C362.441 196.68 361.697 195.913 360.755 195.388C359.835 194.841 358.817 194.567 357.701 194.567C356.585 194.567 355.567 194.83 354.648 195.355C353.729 195.881 352.997 196.647 352.448 197.653C351.902 198.66 351.628 199.842 351.628 201.199C351.628 202.578 351.902 203.782 352.448 204.811C352.997 205.817 353.729 206.594 354.648 207.142C355.567 207.667 356.585 207.93 357.701 207.93C358.817 207.93 359.835 207.667 360.755 207.142C361.697 206.594 362.441 205.817 362.987 204.811C363.536 203.782 363.808 202.589 363.808 201.232ZM379.515 201.199C379.515 199.361 379.886 197.752 380.631 196.373C381.375 194.972 382.392 193.889 383.685 193.123C384.998 192.357 386.452 191.974 388.051 191.974C389.627 191.974 390.994 192.313 392.155 192.991C393.313 193.67 394.179 194.523 394.749 195.552V192.269H397.769V210.261H394.749V206.912C394.158 207.962 393.271 208.838 392.089 209.538C390.929 210.217 389.571 210.556 388.018 210.556C386.419 210.556 384.974 210.162 383.685 209.374C382.392 208.586 381.375 207.481 380.631 206.058C379.886 204.635 379.515 203.016 379.515 201.199ZM394.749 201.232C394.749 199.875 394.474 198.693 393.928 197.686C393.379 196.68 392.636 195.913 391.695 195.388C390.776 194.841 389.758 194.567 388.642 194.567C387.526 194.567 386.508 194.83 385.589 195.355C384.67 195.881 383.936 196.647 383.389 197.653C382.84 198.66 382.568 199.842 382.568 201.199C382.568 202.578 382.84 203.782 383.389 204.811C383.936 205.817 384.67 206.594 385.589 207.142C386.508 207.667 387.526 207.93 388.642 207.93C389.758 207.93 390.776 207.667 391.695 207.142C392.636 206.594 393.379 205.817 393.928 204.811C394.474 203.782 394.749 202.589 394.749 201.232ZM411.584 191.941C413.772 191.941 415.545 192.608 416.903 193.944C418.258 195.257 418.938 197.161 418.938 199.656V210.261H415.983V200.083C415.983 198.288 415.533 196.92 414.637 195.979C413.739 195.016 412.513 194.534 410.96 194.534C409.384 194.534 408.125 195.027 407.185 196.012C406.265 196.997 405.806 198.43 405.806 200.313V210.261H402.818V192.269H405.806V194.83C406.397 193.911 407.194 193.199 408.202 192.696C409.229 192.192 410.357 191.941 411.584 191.941ZM439.314 192.269L428.48 218.731H425.394L428.94 210.064L421.684 192.269H425L430.647 206.846L436.228 192.269H439.314ZM463.952 191.941C465.354 191.941 466.602 192.236 467.694 192.827C468.79 193.396 469.655 194.261 470.288 195.421C470.924 196.581 471.24 197.993 471.24 199.656V210.261H468.285V200.083C468.285 198.288 467.837 196.92 466.939 195.979C466.065 195.016 464.871 194.534 463.361 194.534C461.808 194.534 460.57 195.038 459.651 196.045C458.732 197.03 458.272 198.463 458.272 200.346V210.261H455.317V200.083C455.317 198.288 454.869 196.92 453.971 195.979C453.096 195.016 451.903 194.534 450.392 194.534C448.84 194.534 447.602 195.038 446.683 196.045C445.763 197.03 445.304 198.463 445.304 200.346V210.261H442.316V192.269H445.304V194.863C445.895 193.922 446.683 193.199 447.667 192.696C448.676 192.192 449.78 191.941 450.983 191.941C452.494 191.941 453.83 192.28 454.989 192.959C456.15 193.637 457.015 194.633 457.582 195.946C458.087 194.677 458.919 193.692 460.078 192.991C461.238 192.291 462.531 191.941 463.952 191.941ZM483.988 210.556C482.304 210.556 480.771 210.173 479.392 209.407C478.036 208.641 476.962 207.557 476.174 206.157C475.41 204.734 475.025 203.092 475.025 201.232C475.025 199.393 475.419 197.774 476.207 196.373C477.018 194.95 478.111 193.867 479.49 193.123C480.869 192.357 482.412 191.974 484.119 191.974C485.826 191.974 487.37 192.357 488.748 193.123C490.127 193.867 491.211 194.939 491.999 196.34C492.81 197.741 493.213 199.372 493.213 201.232C493.213 203.092 492.798 204.734 491.966 206.157C491.157 207.557 490.052 208.641 488.65 209.407C487.25 210.173 485.695 210.556 483.988 210.556ZM483.988 207.93C485.062 207.93 486.068 207.678 487.008 207.174C487.951 206.671 488.706 205.916 489.274 204.909C489.865 203.902 490.16 202.677 490.16 201.232C490.16 199.787 489.876 198.562 489.307 197.555C488.739 196.548 487.993 195.804 487.074 195.322C486.155 194.819 485.16 194.567 484.086 194.567C482.994 194.567 481.985 194.819 481.066 195.322C480.17 195.804 479.448 196.548 478.899 197.555C478.353 198.562 478.078 199.787 478.078 201.232C478.078 202.698 478.341 203.935 478.866 204.942C479.415 205.949 480.137 206.704 481.033 207.207C481.931 207.689 482.916 207.93 483.988 207.93ZM500.129 195.191C500.654 194.162 501.4 193.364 502.362 192.794C503.346 192.225 504.54 191.941 505.94 191.941V195.027H505.152C501.803 195.027 500.129 196.844 500.129 200.477V210.261H497.141V192.269H500.129V195.191ZM525.805 200.575C525.805 201.145 525.772 201.746 525.707 202.381H511.327C511.437 204.154 512.037 205.544 513.132 206.551C514.249 207.536 515.595 208.028 517.171 208.028C518.463 208.028 519.535 207.733 520.388 207.142C521.263 206.529 521.877 205.719 522.227 204.712H525.444C524.963 206.441 524 207.853 522.555 208.947C521.11 210.02 519.316 210.556 517.171 210.556C515.463 210.556 513.932 210.173 512.574 209.407C511.24 208.641 510.189 207.557 509.423 206.157C508.656 204.734 508.273 203.092 508.273 201.232C508.273 199.372 508.646 197.741 509.39 196.34C510.133 194.939 511.174 193.867 512.509 193.123C513.866 192.357 515.419 191.974 517.171 191.974C518.878 191.974 520.388 192.346 521.701 193.09C523.015 193.834 524.021 194.863 524.722 196.176C525.444 197.467 525.805 198.934 525.805 200.575ZM522.719 199.952C522.719 198.814 522.468 197.839 521.964 197.03C521.46 196.198 520.77 195.574 519.896 195.158C519.042 194.72 518.09 194.502 517.039 194.502C515.529 194.502 514.237 194.983 513.165 195.946C512.115 196.909 511.512 198.244 511.36 199.952H522.719Z" fill="#373737"/>
</g>
<path d="M711.386 140.226V62.7912C711.386 58.4883 714.874 55 719.177 55H796.572C800.875 55 804.363 58.4883 804.363 62.7912V140.226C804.363 141.66 803.2 142.823 801.766 142.823H713.983C712.549 142.823 711.386 141.66 711.386 140.226ZM773.885 166.753C773.885 175.678 766.65 182.912 757.725 182.912C748.801 182.912 741.566 175.678 741.566 166.753C741.566 157.828 748.801 150.594 757.725 150.594C766.65 150.594 773.885 157.828 773.885 166.753ZM765.805 166.753C765.805 162.291 762.187 158.673 757.725 158.673C753.263 158.673 749.645 162.291 749.645 166.753C749.645 171.215 753.263 174.833 757.725 174.833C762.187 174.833 765.805 171.215 765.805 166.753ZM743.807 150.593H707.597C706.163 150.593 705 151.756 705 153.191V161.07C705 162.504 706.163 163.667 707.597 163.667H736.621C737.379 158.467 740.003 153.875 743.807 150.593ZM858.433 166.753C858.433 175.678 851.197 182.912 842.273 182.912C833.349 182.912 826.114 175.678 826.114 166.753C826.114 157.828 833.349 150.594 842.273 150.594C851.197 150.593 858.433 157.828 858.433 166.753ZM850.353 166.753C850.353 162.291 846.735 158.673 842.273 158.673C837.811 158.673 834.194 162.291 834.194 166.753C834.194 171.215 837.811 174.833 842.273 174.833C846.735 174.833 850.353 171.215 850.353 166.753ZM887 153.191V161.07C887 162.504 885.837 163.667 884.403 163.667H863.377C861.873 153.353 852.996 145.399 842.274 145.399C831.549 145.399 822.673 153.353 821.169 163.667H778.829C778.071 158.468 775.447 153.875 771.643 150.593H811.788V76.3092C811.788 73.4406 814.114 71.115 816.983 71.115H841.501C848.404 71.115 854.856 74.5442 858.719 80.2656L874.525 103.676C876.844 107.11 878.083 111.159 878.083 115.302V150.593H884.403C885.837 150.593 887 151.756 887 153.191ZM860.654 104.276L848.015 86.3156C847.528 85.6245 846.736 85.2132 845.891 85.2132H826.176C824.742 85.2132 823.579 86.376 823.579 87.8103V105.77C823.579 107.205 824.741 108.367 826.176 108.367H858.531C860.634 108.367 861.865 105.996 860.654 104.276Z" fill="#373737"/>
<defs>
<clipPath id="clip0">
<rect width="666" height="164.155" fill="white" transform="translate(31 55.486)"/>
</clipPath>
</defs>
</svg>
