<svg id="Layer_35" enable-background="new 0 0 64 64" height="512" viewBox="0 0 64 64" width="512" xmlns="http://www.w3.org/2000/svg"><path d="m9 34v4h-2c-1.66 0-3-1.34-3-3v-8c0-5.05 3.39-9.29 8.02-10.59.15 2.02 1.43 3.59 2.98 3.59s2.83-1.56 2.98-3.58c1.11.3 2.14.78 3.07 1.39 1.73 1.15 3.12 2.76 3.98 4.67-2.46 2.02-4.03 5.09-4.03 8.52v3h-6z" fill="#fcd770"/><g fill="#838f9b"><path d="m55 38v17c0 .83-.34 1.58-.88 2.12s-1.29.88-2.12.88c-1.66 0-3-1.34-3-3v-21h6z"/><path d="m49 38v17c0 .83-.34 1.58-.88 2.12s-1.29.88-2.12.88c-1.66 0-3-1.34-3-3v-21h6z"/><path d="m15 34v21c0 1.66-1.34 3-3 3-.83 0-1.58-.34-2.12-.88s-.88-1.29-.88-2.12v-17-4z"/><path d="m21 39v16c0 .83-.34 1.58-.88 2.12s-1.29.88-2.12.88c-1.66 0-3-1.34-3-3v-21h6v.05z"/></g><path d="m55 34h-6-6v-3c0-3.04-1.23-5.79-3.22-7.78-.26-.26-.53-.5-.81-.73.9-2.01 2.39-3.7 4.25-4.84l2.78 7.35 3-3 3 3 2.78-7.35.01-.01c.72.45 1.39.98 1.99 1.58 1.99 1.99 3.22 4.74 3.22 7.78v8c0 1.66-1.34 3-3 3h-2z" fill="#b4dd7f"/><path d="m54.79 17.64-.01.01-2.78 7.35-3-3 3.8-5.31v-.01c.7.25 1.37.58 1.99.96z" fill="#e6e9ed"/><circle cx="49" cy="9" fill="#f0d0b4" r="7"/><path d="m52.8 16.68v.01l-3.8 5.31-3.8-5.32c1.18-.44 2.46-.68 3.8-.68s2.62.24 3.8.68z" fill="#f0d0b4"/><path d="m45.2 16.68 3.8 5.32-3 3-2.78-7.35c.62-.4 1.28-.72 1.98-.97z" fill="#e6e9ed"/><path d="m38 38h-6-6v4h-2c-1.66 0-3-1.34-3-3v-4.95-.05-3c0-3.43 1.57-6.5 4.03-8.52 1.57-1.28 3.51-2.14 5.63-2.39l-.66 8.91 2 3 2-3-.66-8.91c2.12.25 4.06 1.11 5.63 2.4.28.23.55.47.81.73 1.99 1.99 3.22 4.74 3.22 7.78v3 5c0 1.66-1.34 3-3 3h-2z" fill="#e6e9ed"/><path d="m38 42v17c0 .83-.34 1.58-.88 2.12s-1.29.88-2.12.88c-1.66 0-3-1.34-3-3v-21h6z" fill="#cf9e76"/><circle cx="32" cy="13" fill="#f0d0b4" r="7"/><path d="m33.34 20.09.66 8.91-2 3-2-3 .66-8.91c.44-.06.89-.09 1.34-.09s.9.03 1.34.09z" fill="#ff826e"/><path d="m32 38v21c0 1.66-1.34 3-3 3-.83 0-1.58-.34-2.12-.88s-.88-1.29-.88-2.12v-17-4z" fill="#cf9e76"/><circle cx="15" cy="9" fill="#f0d0b4" r="7"/><path d="m17.98 16.41v.01c-.15 2.02-1.43 3.58-2.98 3.58s-2.83-1.57-2.98-3.59c.95-.27 1.95-.41 2.98-.41s2.03.14 2.98.41z" fill="#f0d0b4"/><path d="m53.223 15.782c2.263-1.415 3.777-3.922 3.777-6.782 0-4.411-3.589-8-8-8s-8 3.589-8 8c0 2.855 1.508 5.358 3.765 6.774-2.562.969-4.749 2.804-6.15 5.223-.742-.493-1.546-.896-2.392-1.216 2.263-1.414 3.777-3.921 3.777-6.781 0-4.411-3.589-8-8-8s-8 3.589-8 8c0 2.86 1.514 5.367 3.777 6.782-.846.319-1.65.723-2.392 1.216-1.401-2.419-3.587-4.254-6.149-5.223 2.256-1.416 3.764-3.92 3.764-6.775 0-4.411-3.589-8-8-8s-8 3.589-8 8c0 2.86 1.514 5.367 3.777 6.782-4.537 1.714-7.777 6.089-7.777 11.218v8c0 2.206 1.794 4 4 4h1v16c0 2.206 1.794 4 4 4 1.201 0 2.266-.542 3-1.382.734.84 1.799 1.382 3 1.382 2.206 0 4-1.794 4-4v-12.556c.591.344 1.268.556 2 .556h1v16c0 2.206 1.794 4 4 4 1.201 0 2.266-.542 3-1.382.734.84 1.799 1.382 3 1.382 2.206 0 4-1.794 4-4v-16h1c.732 0 1.409-.212 2-.556v12.556c0 2.206 1.794 4 4 4 1.201 0 2.266-.542 3-1.382.734.84 1.799 1.382 3 1.382 2.206 0 4-1.794 4-4v-16h1c2.206 0 4-1.794 4-4v-8c0-5.129-3.24-9.504-7.777-11.218zm-6.379 1.48c.702-.156 1.419-.262 2.156-.262.745 0 1.469.088 2.169.244l-2.169 3.036zm.849 4.63-1.307 1.307-1.924-5.084c.13-.066.253-.145.386-.206zm2.613 0 2.842-3.979c.133.061.264.124.394.19l-1.93 5.096zm-7.306-12.892c0-3.309 2.691-6 6-6s6 2.691 6 6-2.691 6-6 6-6-2.691-6-6zm-10.022 19.731-.978 1.466-.978-1.466.568-7.711c.137-.005.272-.02.41-.02s.273.015.41.021zm-6.978-15.731c0-3.309 2.691-6 6-6s6 2.691 6 6-2.691 6-6 6-6-2.691-6-6zm-11 4c.621 0 1.227.077 1.823.188-.314 1.061-1.024 1.812-1.823 1.812-.802 0-1.515-.757-1.827-1.825.593-.11 1.202-.175 1.827-.175zm-6-8c0-3.309 2.691-6 6-6s6 2.691 6 6-2.691 6-6 6-6-2.691-6-6zm-2 28c-1.103 0-2-.897-2-2v-8c0-4.191 2.595-7.782 6.26-9.267.563 1.923 2.02 3.267 3.74 3.267 1.715 0 3.167-1.336 3.735-3.25 2.135.864 3.93 2.447 5.051 4.526-2.325 2.189-3.786 5.286-3.786 8.724v2h-10v-10h-2v14zm5 20c-1.103 0-2-.897-2-2v-20h4v20c0 1.103-.897 2-2 2zm8-2c0 1.103-.897 2-2 2s-2-.897-2-2v-20h4v4zm9 6c-1.103 0-2-.897-2-2v-20h4v20c0 1.103-.897 2-2 2zm6 0c-1.103 0-2-.897-2-2v-20h4v20c0 1.103-.897 2-2 2zm5-20h-1v-14h-2v10h-10v-10h-2v14h-1c-1.103 0-2-.897-2-2v-4.946-3.054c0-4.672 3.226-8.595 7.564-9.687l-.586 7.956 3.022 4.534 3.022-4.534-.586-7.956c4.338 1.092 7.564 5.015 7.564 9.687v3 5c0 1.103-.897 2-2 2zm6 16c-1.103 0-2-.897-2-2v-16-4h4v20c0 1.103-.897 2-2 2zm6 0c-1.103 0-2-.897-2-2v-20h4v20c0 1.103-.897 2-2 2zm7-22c0 1.103-.897 2-2 2h-1v-13h-2v9h-10v-2c0-3.438-1.461-6.535-3.786-8.724.643-1.193 1.502-2.224 2.53-3.049l2.869 7.575 3.387-3.387 3.387 3.387 2.873-7.588c2.277 1.835 3.74 4.641 3.74 7.786z"/></svg>