<svg id="Capa_1" enable-background="new 0 0 512 512" height="512" viewBox="0 0 512 512" width="512" xmlns="http://www.w3.org/2000/svg"><g><g><g><path d="m119.032 142.096h-24.59v-28.132c0-6.523-5.288-11.811-11.811-11.811h-21.366c-6.523 0-11.811 5.288-11.811 11.811v28.132h-24.589c-6.523 0-11.811 5.288-11.811 11.811v21.366c0 6.523 5.288 11.811 11.811 11.811h24.589v28.133c0 6.523 5.288 11.811 11.811 11.811h21.366c6.523 0 11.811-5.288 11.811-11.811v-28.133h24.589c6.523 0 11.811-5.288 11.811-11.811v-21.366c.001-6.523-5.287-11.811-11.81-11.811z" fill="#fcb44d"/><g><path d="m130.846 153.906v21.364c0 6.522-5.292 11.814-11.814 11.814h-24.59c6.522 0 11.814-5.292 11.814-11.814v-21.364c0-6.522-5.292-11.814-11.814-11.814h24.59c6.522 0 11.814 5.292 11.814 11.814z" fill="#fb9927"/></g></g><g><g><g><g><g><g><path d="m326.752 242.601h-97.047s-69.619-8.162-72.44 121.103c-.125 5.709 2.666 11.068 7.336 14.356 13.596 9.571 47.385 26.93 113.628 26.93s100.032-17.359 113.628-26.93c4.67-3.287 7.461-8.646 7.336-14.356-2.822-129.265-72.441-121.103-72.441-121.103z" fill="#557983"/><g fill="#47666b"><path d="m326.75 242.604h-97.05s-7.98-.94-18.64 2.85c14.62 21.45 39.25 35.54 67.17 35.54 10.92 0 21.33-2.17 30.85-6.08v5c0 7.26 5.88 13.15 13.14 13.15h27.38v31.32c0 7.26 5.88 13.15 13.15 13.15h23.78c4.24 0 8.02-2.01 10.42-5.13-12.4-96.58-70.2-89.8-70.2-89.8z"/><path d="m399.195 363.704c.119 5.712-2.669 11.066-7.337 14.362-13.601 9.559-47.38 26.919-113.625 26.919-9.127 0-17.628-.328-25.547-.925 49.617-3.713 76.357-17.747 88.064-25.994 4.683-3.296 7.472-8.65 7.337-14.362-2.341-107.585-50.959-119.978-67.2-121.097h45.859c0 .001 69.631-8.172 72.449 121.097z"/></g></g><g><circle cx="278.228" cy="171.309" fill="#fdb0a0" r="81.228"/><path d="m255.44 101.7v23.79c0 7.26-5.89 13.15-13.15 13.15h-27.37v31.32c0 7.26-5.89 13.14-13.15 13.14h-3.91c-.57-3.85-.86-7.79-.86-11.79 0-36.06 23.49-66.63 56.01-77.23 1.53 2.15 2.43 4.78 2.43 7.62z" fill="#f89f8e"/><path d="m359.461 171.306c0 44.869-36.364 81.233-81.233 81.233-44.373 0-80.423-35.555-81.216-79.73 7.976 29.197 34.679 50.648 66.403 50.648 38.015 0 68.847-30.832 68.847-68.847 0-28.833-17.736-53.539-42.903-63.761 39.6 5.417 70.102 39.387 70.102 80.457z" fill="#f89f8e"/><g><path d="m242.29 70.04h-27.374v-31.319c0-7.262-5.887-13.149-13.149-13.149h-23.785c-7.262 0-13.149 5.887-13.149 13.149v31.319h-27.374c-7.262 0-13.149 5.887-13.149 13.149v23.785c0 7.262 5.887 13.149 13.149 13.149h27.374v31.319c0 7.262 5.887 13.149 13.149 13.149h23.785c7.262 0 13.149-5.887 13.149-13.149v-31.319h27.374c7.262 0 13.149-5.887 13.149-13.149v-23.785c0-7.262-5.887-13.149-13.149-13.149z" fill="#23f1a8"/><g><path d="m255.442 83.187v23.783c0 7.26-5.892 13.152-13.152 13.152h-27.374c7.26 0 13.152-5.892 13.152-13.152v-23.783c0-7.26-5.892-13.152-13.152-13.152h27.374c7.261 0 13.152 5.892 13.152 13.152z" fill="#26d192"/></g></g></g></g></g></g><g><g><g><g><path d="m278.124 426.908c.122 5.721-2.666 11.077-7.34 14.364-13.584 9.568-47.375 26.926-113.618 26.926s-100.034-17.358-113.63-26.926c-4.674-3.287-7.462-8.642-7.34-14.364 1.655-76.029 26.426-104.513 46.548-115.067 14.084-7.413 25.891-6.025 25.891-6.025h97.051s11.807-1.388 25.903 6.025c20.121 10.566 44.879 39.05 46.535 115.067z" fill="#23f1a8"/><g><path d="m184.1 364.394c-26.99 0-48.94 21.95-48.94 48.94v38.4c0 5.58.94 10.95 2.67 15.94 6.11.34 12.56.52 19.34.52 32.42 0 57.07-4.16 75.37-9.53.32-2.27.49-4.58.49-6.93v-38.4c0-26.99-21.95-48.94-48.93-48.94zm13 87.34c0 7.17-5.83 13.01-13 13.01s-13.01-5.84-13.01-13.01v-38.4c0-7.17 5.84-13.01 13.01-13.01s13 5.84 13 13.01z" fill="#26d192"/></g><g><path d="m105.37 382.354v69.38c0 4.17-.52 8.22-1.51 12.08-14-2.51-25.45-5.86-34.7-9.38.18-.87.28-1.78.28-2.7v-51.41h-18c-5.07 0-9.65-2.1-12.91-5.47 1.44-10.98 3.48-20.62 5.95-29.07 2.14-.89 4.5-1.39 6.96-1.39h35.97c9.92 0 17.96 8.04 17.96 17.96z" fill="#26d192"/></g><g fill="#26d192"><path d="m222.84 308.164c-14.77 20.26-38.69 33.43-65.68 33.43s-50.91-13.17-65.68-33.43c9.91-3.2 17.15-2.35 17.15-2.35h97.06s7.24-.85 17.15 2.35z"/><path d="m278.129 426.914c.119 5.712-2.669 11.066-7.337 14.362-13.601 9.559-47.38 26.919-113.625 26.919-9.127 0-17.628-.328-25.547-.925 49.617-3.713 76.357-17.747 88.064-25.994 4.683-3.296 7.472-8.65 7.337-14.362-2.341-107.585-50.959-119.978-67.2-121.097h45.859s69.631-8.172 72.449 121.097z"/></g></g><g><circle cx="157.162" cy="234.519" fill="#fdb0a0" r="81.228"/><path d="m238.395 234.516c0 44.869-36.364 81.233-81.233 81.233-44.373 0-80.423-35.555-81.216-79.73 7.976 29.197 34.679 50.648 66.403 50.648 38.015 0 68.847-30.832 68.847-68.847 0-28.833-17.736-53.539-42.903-63.761 39.6 5.417 70.102 39.386 70.102 80.457z" fill="#f89f8e"/></g></g></g></g></g><g><g><g><path d="m184.096 482.794c-26.984 0-48.937-21.953-48.937-48.938v-38.404c0-26.984 21.953-48.937 48.937-48.937s48.937 21.953 48.937 48.937v38.404c0 26.984-21.953 48.938-48.937 48.938zm0-100.348c-7.171 0-13.006 5.835-13.006 13.006v38.404c0 7.172 5.835 13.007 13.006 13.007s13.006-5.835 13.006-13.007v-38.404c0-7.171-5.835-13.006-13.006-13.006z" fill="#fca62f"/></g><g><path d="m233.03 395.45v38.41c0 26.98-21.95 48.93-48.93 48.93-3.78 0-7.46-.43-10.99-1.25 21.71-4.99 37.95-24.48 37.95-47.68v-38.41c0-23.2-16.24-42.69-37.95-47.69 3.53-.82 7.21-1.25 10.99-1.25 26.98 0 48.93 21.96 48.93 48.94z" fill="#f98824"/></g><g><path d="m56.437 482.794c-26.984 0-48.937-21.953-48.937-48.938 0-9.923 8.043-17.966 17.966-17.966s17.966 8.043 17.966 17.966c0 7.172 5.835 13.007 13.006 13.007s13.006-5.835 13.006-13.007v-51.41h-13.007c-9.923 0-17.966-8.043-17.966-17.966s8.043-17.966 17.966-17.966h30.971c9.923 0 17.966 8.043 17.966 17.966v69.376c0 26.984-21.953 48.938-48.937 48.938z" fill="#fca62f"/></g><g><path d="m105.37 364.48v69.38c0 26.98-21.95 48.93-48.93 48.93-3.94 0-7.77-.47-11.44-1.35 21.49-5.16 37.5-24.54 37.5-47.58v-69.38c0-9.92-8.04-17.97-17.96-17.97h22.87c9.92 0 17.96 8.05 17.96 17.97z" fill="#f98824"/></g><g><path d="m408.442 482.795c-6.116 0-11.955-3.133-15.289-8.53l-28.688-46.477v37.041c0 9.923-8.043 17.966-17.966 17.966s-17.966-8.043-17.966-17.966v-100.349c0-8.033 5.334-15.09 13.061-17.283 7.732-2.199 15.971 1.011 20.194 7.846l28.688 46.477v-37.04c0-9.923 8.043-17.966 17.966-17.966s17.966 8.043 17.966 17.966v100.348c0 8.033-5.334 15.09-13.061 17.283-1.626.462-3.275.684-4.905.684z" fill="#fca62f"/></g><g><path d="m426.41 364.48v100.35c0 8.03-5.34 15.09-13.06 17.28-1.63.46-3.28.69-4.91.69-4.68 0-9.2-1.84-12.56-5.13 3.37-3.3 5.4-7.89 5.4-12.84v-100.35c0-5.03-2.07-9.58-5.4-12.84 3.24-3.18 7.67-5.13 12.56-5.13 9.93 0 17.97 8.05 17.97 17.97z" fill="#f98824"/></g><g><path d="m280.784 482.794c-9.923 0-17.966-8.043-17.966-17.966v-100.348c0-9.923 8.043-17.966 17.966-17.966s17.966 8.043 17.966 17.966v100.348c-.001 9.923-8.044 17.966-17.966 17.966z" fill="#fca62f"/></g><g><path d="m298.75 364.48v100.35c0 9.92-8.04 17.96-17.97 17.96-4.23 0-8.12-1.46-11.19-3.92 4.13-3.28 6.78-8.35 6.78-14.04v-100.35c0-5.69-2.65-10.76-6.78-14.05 3.07-2.46 6.96-3.92 11.19-3.92 9.93 0 17.97 8.05 17.97 17.97z" fill="#f98824"/></g></g></g><g><g><g><path d="m485.047 420.332c-10.744 0-19.453-8.709-19.453-19.453v-136.696c0-10.744 8.709-19.453 19.453-19.453s19.453 8.709 19.453 19.453v136.696c0 10.744-8.709 19.453-19.453 19.453z" fill="#fb4a59"/></g><g><path d="m504.5 264.18v136.7c0 10.74-8.71 19.45-19.45 19.45-3.68 0-7.13-1.03-10.07-2.81 5.63-3.4 9.39-9.58 9.39-16.64v-136.7c0-7.06-3.76-13.24-9.39-16.64 2.94-1.78 6.39-2.81 10.07-2.81 10.74 0 19.45 8.71 19.45 19.45z" fill="#f82f40"/></g></g><g><path d="m485.047 486.427c-10.744 0-19.453-8.709-19.453-19.453s8.709-19.537 19.453-19.537 19.453 8.623 19.453 19.368v.17c0 10.743-8.709 19.452-19.453 19.452z" fill="#fb4a59"/></g><g><g><path d="m504.5 466.8v.17c0 10.75-8.71 19.46-19.45 19.46-3.68 0-7.13-1.03-10.07-2.81 5.63-3.4 9.39-9.59 9.39-16.65v-.17c0-7.04-3.74-13.17-9.35-16.56 2.93-1.77 6.36-2.8 10.03-2.8 10.74 0 19.45 8.62 19.45 19.36z" fill="#f82f40"/></g></g></g><g><path d="m427.055 214.521h-27.374v-31.318c0-7.262-5.887-13.149-13.149-13.149h-23.785c-7.262 0-13.149 5.887-13.149 13.149v31.318h-27.374c-7.262 0-13.149 5.887-13.149 13.149v23.785c0 7.262 5.887 13.149 13.149 13.149h27.374v31.319c0 7.262 5.887 13.149 13.149 13.149h23.785c7.262 0 13.149-5.887 13.149-13.149v-31.319h27.374c7.262 0 13.149-5.887 13.149-13.149v-23.785c-.001-7.262-5.888-13.149-13.149-13.149z" fill="#31a7fb"/><g><path d="m440.207 227.669v23.783c0 7.26-5.892 13.152-13.152 13.152h-27.374c7.26 0 13.152-5.892 13.152-13.152v-23.783c0-7.26-5.892-13.152-13.152-13.152h27.374c7.261 0 13.152 5.892 13.152 13.152z" fill="#1785f8"/></g></g></g></g><g><path d="m261.48 188.866c-3.159-2.68-7.892-2.291-10.57.867-2.68 3.159-2.292 7.892.867 10.571 6.71 5.692 15.615 8.828 25.075 8.828s18.365-3.135 25.075-8.828c3.159-2.68 3.547-7.413.867-10.571-2.678-3.157-7.412-3.546-10.57-.867-3.945 3.347-9.548 5.266-15.372 5.266s-11.426-1.919-15.372-5.266z"/><path d="m239.076 153.817c-.01 0-.02 0-.03 0-4.128 0-7.482 3.338-7.499 7.471-.017 4.142 3.328 7.513 7.471 7.529h.124.03c4.128 0 7.482-3.338 7.499-7.471.017-4.142-3.328-7.513-7.471-7.529z"/><path d="m317.366 168.817h.03.01.004c4.128 0 7.482-3.339 7.499-7.471.017-4.142-3.328-7.513-7.471-7.529h-.125c-.01 0-.02 0-.03 0-.003 0-.006 0-.01 0-.001 0-.002 0-.003 0-4.128 0-7.482 3.338-7.499 7.471-.017 4.142 3.328 7.513 7.471 7.529z"/><path d="m171.158 252.076c-3.945 3.347-9.549 5.267-15.372 5.267s-11.427-1.919-15.372-5.267c-3.159-2.68-7.891-2.291-10.57.867-2.68 3.159-2.292 7.892.867 10.571 6.71 5.693 15.615 8.828 25.075 8.828s18.365-3.135 25.075-8.828c3.159-2.68 3.547-7.413.867-10.571-2.678-3.157-7.412-3.546-10.57-.867z"/><path d="m196.42 217.03c-.021 0-.041-.003-.062-.003h-.005c-.003 0-.006 0-.009 0h-.109-.017c-.005 0-.009 0-.014 0-4.128 0-7.482 3.338-7.499 7.471-.016 3.894 2.941 7.105 6.737 7.489.07.007.142.006.212.012.173.013.345.028.521.028h.124.03.01.004c4.143 0 7.5-3.358 7.5-7.5.001-4.117-3.316-7.456-7.423-7.497z"/><path d="m118.134 217.027h-.124c-.01 0-.02 0-.03 0-4.128 0-7.482 3.338-7.499 7.471-.017 4.142 3.328 7.513 7.471 7.529h.124.03c4.128 0 7.482-3.338 7.499-7.471.016-4.142-3.329-7.513-7.471-7.529z"/><path d="m184.096 374.946c-11.307 0-20.505 9.199-20.505 20.506v38.404c0 11.308 9.198 20.507 20.505 20.507s20.506-9.199 20.506-20.507v-38.404c0-11.308-9.2-20.506-20.506-20.506zm5.506 58.909c0 3.037-2.47 5.507-5.506 5.507-3.035 0-5.505-2.47-5.505-5.507v-38.404c0-3.036 2.47-5.506 5.505-5.506 3.036 0 5.506 2.47 5.506 5.506z"/><path d="m485.047 237.229c-14.862 0-26.953 12.091-26.953 26.953v37.338c0 4.142 3.357 7.5 7.5 7.5s7.5-3.358 7.5-7.5v-37.338c0-6.591 5.362-11.953 11.953-11.953s11.953 5.363 11.953 11.953v136.696c0 6.591-5.362 11.954-11.953 11.954s-11.953-5.362-11.953-11.954v-62.331c0-4.142-3.357-7.5-7.5-7.5s-7.5 3.358-7.5 7.5v62.331c0 14.862 12.091 26.954 26.953 26.954s26.953-12.091 26.953-26.953v-136.697c0-14.861-12.091-26.953-26.953-26.953z"/><path d="m485.047 439.937c-14.862 0-26.953 12.129-26.953 27.037 0 14.862 12.091 26.954 26.953 26.954s26.953-12.092 26.953-26.954v-.169c0-14.815-12.091-26.868-26.953-26.868zm11.953 27.037c0 6.591-5.362 11.954-11.953 11.954s-11.953-5.362-11.953-11.954c0-6.637 5.362-12.037 11.953-12.037s11.953 5.323 11.953 11.867z"/><path d="m427.055 207.021h-19.874v-23.818c0-11.386-9.263-20.649-20.648-20.649h-20.004c-3.003-30.76-21.686-57.682-49.885-71.245-3.733-1.795-8.215-.226-10.01 3.508-1.796 3.733-.225 8.214 3.508 10.01 23.964 11.526 39.651 34.659 41.6 60.935-5.784 3.663-9.644 10.103-9.644 17.441v23.818h-19.874c-11.386 0-20.648 9.263-20.648 20.649v13.584c-7.499 2.504-15.332 3.783-23.347 3.783-11.24 0-22.37-2.586-32.392-7.487.035-1.01.053-2.021.053-3.032 0-26.852-11.991-50.954-30.898-67.238 4.533-3.791 7.425-9.482 7.425-15.84v-23.818h19.874c11.386 0 20.648-9.263 20.648-20.649v-7.786c4.766-1.004 9.644-1.538 14.556-1.586 4.142-.041 7.467-3.431 7.427-7.573-.041-4.117-3.391-7.427-7.498-7.427-.025 0-.051 0-.075 0-4.845.047-9.666.487-14.409 1.31v-.724c0-11.386-9.263-20.649-20.648-20.649h-19.874v-23.817c0-11.386-9.263-20.649-20.648-20.649h-23.786c-11.386 0-20.648 9.263-20.648 20.649v23.819h-19.874c-11.386 0-20.648 9.263-20.648 20.649v23.785c0 11.386 9.263 20.649 20.648 20.649h19.874v18.171c-.057 0-.114-.002-.171-.002-6.786 0-13.395.769-19.748 2.218-2.5-7.771-9.791-13.413-18.383-13.413h-17.089v-20.632c0-10.648-8.663-19.312-19.312-19.312h-21.367c-10.648 0-19.312 8.663-19.312 19.312v20.632h-17.089c-10.648 0-19.312 8.663-19.312 19.312v21.365c0 10.648 8.663 19.312 19.312 19.312h17.089v20.633c0 10.648 8.663 19.311 19.312 19.311h7.168c.003 25.466 10.793 48.456 28.036 64.651-4.937.927-10.899 2.7-17.212 6.02-13.778 7.224-24.972 19.368-33.317 36.088-8.818 4.007-14.969 12.892-14.969 23.193 0 4.391 1.117 8.527 3.083 12.136-2.091 9.82-3.588 20.576-4.471 32.111-1.341-.219-2.715-.338-4.117-.338-14.043-.002-25.467 11.422-25.467 25.464 0 31.12 25.317 56.438 56.438 56.438 17.108 0 32.45-7.662 42.809-19.723 14.381 2.786 30.1 4.45 46.826 4.952 10.039 9.169 23.388 14.771 38.023 14.771 18.619 0 35.154-9.068 45.44-23.014 9.333-2.468 17.96-5.451 25.782-8.914v6.462c0 14.042 11.424 25.466 25.466 25.466s25.466-11.424 25.466-25.466v-53.443c5.037-.409 9.978-.929 14.785-1.565v55.009c0 14.042 11.424 25.466 25.466 25.466s25.466-11.424 25.466-25.466v-10.61l14.807 23.988c4.676 7.57 12.776 12.089 21.67 12.089 2.352 0 4.691-.326 6.953-.969 10.9-3.094 18.513-13.168 18.513-24.498v-100.348c0-14.042-11.424-25.466-25.466-25.466-1.079 0-2.14.075-3.184.206-1.001-10.136-2.498-19.643-4.483-28.384 3.938-3.762 6.406-9.05 6.406-14.913v-23.819h19.874c11.386 0 20.648-9.263 20.648-20.649v-23.785c-.002-11.386-9.265-20.649-20.65-20.649zm-262.222-94.398h-27.374c-3.114 0-5.648-2.534-5.648-5.649v-23.785c0-3.115 2.534-5.649 5.648-5.649h27.374c4.143 0 7.5-3.358 7.5-7.5v-31.319c0-3.115 2.534-5.649 5.648-5.649h23.786c3.114 0 5.648 2.534 5.648 5.649v31.319c0 4.142 3.357 7.5 7.5 7.5h27.374c3.114 0 5.648 2.534 5.648 5.649v23.785c0 3.115-2.534 5.649-5.648 5.649h-27.374c-4.143 0-7.5 3.358-7.5 7.5v31.318c0 3.115-2.534 5.649-5.648 5.649h-1.322c-8.594-4.823-18.066-8.258-28.113-9.996v-26.971c.001-4.142-3.356-7.5-7.499-7.5zm-107.879 102.594v-28.133c0-4.142-3.357-7.5-7.5-7.5h-24.589c-2.377 0-4.312-1.934-4.312-4.312v-21.365c0-2.377 1.935-4.312 4.312-4.312h24.589c4.143 0 7.5-3.358 7.5-7.5v-28.132c0-2.377 1.935-4.312 4.312-4.312h21.365c2.377 0 4.312 1.934 4.312 4.312v28.132c0 4.142 3.357 7.5 7.5 7.5h24.589c1.914 0 3.522 1.262 4.083 2.992-27.631 11.525-48.229 36.635-53.408 66.94h-8.441c-2.377.001-4.312-1.933-4.312-4.31zm-.516 174.729h5.505v43.91c0 3.037-2.47 5.507-5.505 5.507-3.036 0-5.506-2.47-5.506-5.507 0-6.688-2.595-12.778-6.826-17.326.543-10.093 1.552-19.584 3.018-28.355 2.887 1.138 6.027 1.771 9.314 1.771zm0 85.348c-22.849 0-41.438-18.59-41.438-41.439 0-5.771 4.695-10.466 10.466-10.466s10.466 4.695 10.466 10.466c0 11.308 9.199 20.507 20.506 20.507s20.505-9.199 20.505-20.507v-51.41c0-4.142-3.357-7.5-7.5-7.5h-13.005c-5.771 0-10.466-4.695-10.466-10.466s4.695-10.466 10.466-10.466h30.971c5.771 0 10.466 4.695 10.466 10.466v69.375c-.001 22.85-18.589 41.44-41.437 41.44zm127.658 0c-22.849 0-41.437-18.589-41.437-41.438v-38.404c0-22.849 18.588-41.438 41.437-41.438s41.438 18.589 41.438 41.438v38.404c-.001 22.848-18.59 41.438-41.438 41.438zm54.386-26.399c1.327-4.792 2.051-9.832 2.051-15.04v-38.404c0-31.12-25.317-56.438-56.438-56.438-31.119 0-56.437 25.318-56.437 56.438v38.404c0 9.4 2.323 18.264 6.405 26.068-9.119-.627-17.845-1.641-26.128-3.025 3.163-7.042 4.938-14.836 4.938-23.043v-69.375c0-14.042-11.424-25.466-25.466-25.466h-22.921c6.059-9.238 13.338-16.127 21.745-20.535 11.648-6.126 21.487-5.224 21.527-5.219.289.034.58.051.871.051h7.768c12.214 6.344 26.077 9.936 40.765 9.936 14.303 0 28.265-3.485 40.742-9.936h7.786c.291 0 .522-.01.813-.044.096-.011 9.938-.915 21.599 5.213 12.454 6.542 22.384 18.436 29.556 35.355-1.498 3.241-2.34 6.845-2.34 10.644v77.289c-5.139 2.627-10.76 5.009-16.836 7.127zm52.767 15.933c0 5.771-4.695 10.466-10.466 10.466s-10.466-4.695-10.466-10.466v-100.348c0-5.771 4.695-10.466 10.466-10.466s10.466 4.695 10.466 10.466zm127.659-100.348v100.348c0 4.656-3.129 8.796-7.611 10.069-.93.264-1.891.398-2.854.398-3.655 0-6.985-1.859-8.907-4.97l-28.688-46.477c-1.391-2.253-3.829-3.561-6.382-3.561-.68 0-1.369.093-2.048.285-3.226.916-5.452 3.862-5.452 7.215v37.041c0 5.771-4.695 10.466-10.466 10.466s-10.466-4.695-10.466-10.466v-100.348c0-4.656 3.129-8.796 7.612-10.069 4.473-1.271 9.311.608 11.76 4.572l28.688 46.478c1.761 2.854 5.202 4.191 8.43 3.276 3.226-.916 5.452-3.862 5.452-7.215v-37.042c0-5.771 4.695-10.466 10.466-10.466s10.466 4.695 10.466 10.466zm-28.095-18.351c-4.824 4.637-7.836 11.147-7.836 18.351v10.611l-14.808-23.99c-5.959-9.645-17.729-14.216-28.622-11.119-10.9 3.094-18.513 13.167-18.513 24.498v30.199c-4.793.672-9.726 1.235-14.785 1.666v-31.865c0-14.042-11.424-25.466-25.466-25.466-4.348 0-8.444 1.098-12.029 3.027-8.357-17.091-19.649-29.471-33.675-36.839-6.301-3.311-12.25-5.085-17.18-6.015 1.758-1.65 3.456-3.374 5.085-5.175 2.778-3.072 2.54-7.815-.532-10.593-3.07-2.777-7.814-2.54-10.593.532-13.964 15.441-33.9 24.296-54.697 24.296-40.654 0-73.729-33.074-73.729-73.728 0-40.653 33.074-73.728 73.729-73.728 40.653 0 73.728 33.074 73.728 73.728 0 6.811-.95 13.606-2.823 20.196-1.133 3.984 1.179 8.132 5.163 9.265 3.983 1.132 8.132-1.18 9.265-5.164.534-1.88 1.001-3.774 1.41-5.679 10.813 4.527 22.522 6.899 34.324 6.899 8.21 0 16.265-1.122 24.053-3.314 2.338 8.838 10.379 15.381 19.942 15.381h19.874v23.819c0 11.386 9.264 20.649 20.649 20.649h23.785c.046 0 .091-.007.137-.007 1.92 9.03 3.309 18.932 4.144 29.565zm41.89-94.674c0 3.115-2.534 5.649-5.648 5.649h-27.374c-4.143 0-7.5 3.358-7.5 7.5v31.319c0 3.115-2.534 5.649-5.648 5.649h-23.785c-3.115 0-5.649-2.534-5.649-5.649v-31.319c0-4.142-3.357-7.5-7.5-7.5h-27.374c-3.114 0-5.648-2.534-5.648-5.649v-23.785c0-3.115 2.534-5.649 5.648-5.649h27.374c4.143 0 7.5-3.358 7.5-7.5v-31.318c0-3.115 2.534-5.649 5.649-5.649h23.785c3.114 0 5.648 2.534 5.648 5.649v31.318c0 4.142 3.357 7.5 7.5 7.5h27.374c3.114 0 5.648 2.534 5.648 5.649z"/></g></g></svg>