<svg width="32" height="33" viewBox="0 0 32 33" fill="none" xmlns="http://www.w3.org/2000/svg">
<path d="M28.3911 13.7817H27.36V13.7274H15.84V18.9637H23.074C22.0186 22.0119 19.1828 24.2001 15.84 24.2001C11.5988 24.2001 8.16004 20.6832 8.16004 16.3455C8.16004 12.0079 11.5988 8.491 15.84 8.491C17.7978 8.491 19.5789 9.24635 20.9351 10.4802L24.5556 6.7774C22.2695 4.59842 19.2116 3.25464 15.84 3.25464C8.77124 3.25464 3.04004 9.11609 3.04004 16.3455C3.04004 23.575 8.77124 29.4365 15.84 29.4365C22.9088 29.4365 28.64 23.575 28.64 16.3455C28.64 15.4678 28.5517 14.611 28.3911 13.7817Z" fill="#FFC107"/>
<path d="M4.51587 10.2524L8.72131 13.4066C9.85923 10.5253 12.6151 8.491 15.84 8.491C17.7978 8.491 19.5789 9.24635 20.9351 10.4802L24.5555 6.7774C22.2695 4.59842 19.2115 3.25464 15.84 3.25464C10.9235 3.25464 6.65987 6.0934 4.51587 10.2524Z" fill="#FF3D00"/>
<path d="M15.84 29.4364C19.1463 29.4364 22.1504 28.1424 24.4218 26.038L20.4602 22.6095C19.1319 23.6426 17.5088 24.2014 15.84 24.2C12.5107 24.2 9.68386 22.0289 8.6189 18.999L4.44482 22.2881C6.56322 26.5276 10.8653 29.4364 15.84 29.4364Z" fill="#4CAF50"/>
<path d="M28.3911 13.7816H27.3601V13.7273H15.8401V18.9637H23.074C22.5692 20.4144 21.6598 21.6821 20.4583 22.6101L20.4602 22.6088L24.4218 26.0373C24.1415 26.2978 28.6401 22.8909 28.6401 16.3455C28.6401 15.4677 28.5518 14.6109 28.3911 13.7816Z" fill="#1976D2"/>
</svg>
