<svg width="294" height="322" viewBox="0 0 294 322" fill="none" xmlns="http://www.w3.org/2000/svg">
<g filter="url(#filter0_dii)">
<path d="M68 155C132.545 161.44 168.187 161.099 231 155C229.41 184.605 225.188 204.743 217.513 230.231C212.266 247.656 197.144 260.454 179.038 262.275C156.567 264.534 138.207 264.608 115.634 262.299C97.9563 260.491 83.0368 248.118 78.2739 230.998C71.3476 206.102 68.8788 185.676 68 155Z" fill="#FFECC6"/>
</g>
<g style="mix-blend-mode:multiply" opacity="0.8">
<path fill-rule="evenodd" clip-rule="evenodd" d="M231 155C168.187 161.099 132.545 161.44 68 155C68.8788 185.676 71.3476 206.102 78.2739 230.998C79.3317 234.8 80.8905 238.368 82.8692 241.639L75.5864 179.966C75.2625 177.223 77.2046 174.611 79.924 174.132C82.6435 173.652 85.1106 175.487 85.4345 178.229L94.4032 254.179C96.9209 256.011 99.6402 257.577 102.516 258.84L98.8136 178.995C98.6857 176.236 100.809 173.769 103.555 173.484C106.302 173.2 108.632 175.205 108.76 177.963L112.652 261.89C113.636 262.06 114.631 262.196 115.634 262.299C118.611 262.603 121.515 262.867 124.364 263.089L121.254 178.997C121.152 176.237 123.304 173.876 126.061 173.723C128.819 173.57 131.137 175.684 131.239 178.443L134.392 263.71C137.66 263.859 140.884 263.95 144.096 263.984V178C144.096 175.239 146.334 173 149.096 173C151.857 173 154.096 175.239 154.096 178V263.91C156.883 263.839 159.687 263.726 162.527 263.573L165.676 178.443C165.778 175.684 168.096 173.57 170.853 173.723C173.61 173.876 175.762 176.237 175.66 178.997L172.558 262.874C174.684 262.696 176.841 262.496 179.038 262.275C180.284 262.149 181.516 261.972 182.731 261.745L186.616 177.963C186.744 175.205 189.074 173.2 191.821 173.484C194.567 173.769 196.69 176.236 196.562 178.995L192.874 258.543C196.807 256.757 200.447 254.41 203.693 251.598L209.823 177.591C210.051 174.839 212.452 172.92 215.187 173.304C217.921 173.689 219.953 176.231 219.725 178.983L214.93 236.886C215.953 234.759 216.819 232.535 217.513 230.231C225.188 204.743 229.41 184.605 231 155Z" fill="#FFECC6"/>
</g>
<g filter="url(#filter1_dii)">
<path d="M68.5 186C74.2572 186 79.6157 184.293 84.0969 181.357C87.5081 193.276 98.4853 202 111.5 202C115.647 202 119.587 201.114 123.142 199.521C127.871 208.713 137.451 215 148.5 215C159.549 215 169.129 208.713 173.858 199.521C177.413 201.114 181.353 202 185.5 202C197.97 202 208.57 193.991 212.436 182.836C216.349 184.858 220.791 186 225.5 186C241.24 186 254 173.24 254 157.5C254 141.76 241.24 129 225.5 129C213.03 129 202.43 137.009 198.564 148.164C194.651 146.142 190.209 145 185.5 145C174.451 145 164.871 151.287 160.142 160.479C156.587 158.886 152.647 158 148.5 158C144.353 158 140.413 158.886 136.858 160.479C132.129 151.287 122.549 145 111.5 145C105.743 145 100.384 146.707 95.9031 149.643C92.4919 137.724 81.5147 129 68.5 129C52.7599 129 40 141.76 40 157.5C40 173.24 52.7599 186 68.5 186Z" fill="white"/>
</g>
<g filter="url(#filter2_ii)">
<path d="M227.563 106.464C238.408 142.768 226.619 172 147.964 172C69.3091 172 60.975 142.768 71.8377 106.464C82.7004 70.1597 106.069 48 147.964 48C189.86 48 216.719 70.1597 227.563 106.464Z" fill="#FFE165"/>
</g>
<g opacity="0.8">
<g filter="url(#filter3_dii)">
<path d="M75 121.248C83.0902 117.656 86.2479 114.62 89.1421 107.106C91.447 114.388 94.2813 117.635 103.284 121.248C94.0229 124.266 91.5095 127.759 89.1421 135.39C86.2331 128.357 84.4364 124.518 75 121.248Z" fill="white"/>
</g>
<g filter="url(#filter4_dii)">
<path d="M92 100.314C96.8541 98.1584 98.7487 96.3368 100.485 91.8287C101.868 96.1975 103.569 98.1462 108.971 100.314C103.414 102.124 101.906 104.22 100.485 108.799C98.7398 104.579 97.6618 102.276 92 100.314Z" fill="white"/>
</g>
</g>
<g filter="url(#filter5_dii)">
<path d="M156.589 18.2982C156.824 18.2289 157.073 18.1953 157.332 18.2037C158.619 18.2457 159.631 19.3157 159.592 20.5937C159.216 32.9349 158.203 39.8502 154.487 51.6685C154.104 52.8882 152.796 53.5658 151.567 53.1819C150.337 52.7981 149.651 51.4982 150.034 50.2785C153.343 39.7561 154.408 33.4102 154.837 23.0372C151.727 27.1611 146.817 32.8536 142.035 35.0048C134.181 38.538 123.068 35.8708 123.068 35.8708C123.068 35.8708 127.19 23.4768 134.965 20.3516C141.265 17.8193 152.539 18.1004 156.589 18.2982Z" fill="url(#paint0_linear)"/>
</g>
<g filter="url(#filter6_dii)">
<path d="M168.948 56.4377C167.594 66.44 158.572 69.6323 151.207 68.6351C143.841 67.6379 136.737 61.1305 137.941 52.2396C139.145 43.3486 147.912 36.2739 154.953 40.962C162.537 38.5935 170.303 46.4354 168.948 56.4377Z" fill="#FB7B60"/>
</g>
<g filter="url(#filter7_dii)">
<path d="M191.926 130.426C191.702 130.274 191.45 130.154 191.175 130.076C189.802 129.684 188.372 130.471 187.98 131.833C184.201 144.985 182.929 152.625 182.851 166.355C182.843 167.773 183.994 168.93 185.422 168.941C186.849 168.952 188.013 167.812 188.021 166.395C188.091 154.171 189.114 147.113 192.171 136.021C194.058 141.425 197.314 149.095 201.633 152.984C208.725 159.37 221.357 160.316 221.357 160.316C221.357 160.316 221.2 145.841 214.053 139.912C208.261 135.107 196.268 131.589 191.926 130.426Z" fill="url(#paint1_linear)"/>
</g>
<g filter="url(#filter8_dii)">
<path d="M165.976 166.495C164.02 177.509 172.461 183.932 180.572 185.372C188.683 186.812 198.382 182.348 200.121 172.558C201.859 162.767 195.001 152.334 185.983 154.899C178.781 149.833 167.932 155.481 165.976 166.495Z" fill="#FB7B60"/>
</g>
<g style="mix-blend-mode:multiply" opacity="0.5">
<path d="M192 74.7577C202.5 82.2577 209.965 90.3408 214.5 106.5" stroke="#FFDB54" stroke-width="10" stroke-linecap="round"/>
</g>
<g style="mix-blend-mode:multiply" opacity="0.5" filter="url(#filter9_ii)">
<circle r="5" transform="matrix(-0.951693 0.307051 0.307051 0.951693 218.793 119.552)" fill="#FFDB54"/>
</g>
<defs>
<filter id="filter0_dii" x="29.6" y="135.8" width="239.8" height="185.8" filterUnits="userSpaceOnUse" color-interpolation-filters="sRGB">
<feFlood flood-opacity="0" result="BackgroundImageFix"/>
<feColorMatrix in="SourceAlpha" type="matrix" values="0 0 0 0 0 0 0 0 0 0 0 0 0 0 0 0 0 0 127 0" result="hardAlpha"/>
<feOffset dy="19.2"/>
<feGaussianBlur stdDeviation="19.2"/>
<feColorMatrix type="matrix" values="0 0 0 0 0.2 0 0 0 0 0.185098 0 0 0 0 0.155294 0 0 0 0.24 0"/>
<feBlend mode="normal" in2="BackgroundImageFix" result="effect1_dropShadow"/>
<feBlend mode="normal" in="SourceGraphic" in2="effect1_dropShadow" result="shape"/>
<feColorMatrix in="SourceAlpha" type="matrix" values="0 0 0 0 0 0 0 0 0 0 0 0 0 0 0 0 0 0 127 0" result="hardAlpha"/>
<feOffset dy="5.97333"/>
<feGaussianBlur stdDeviation="2.98667"/>
<feComposite in2="hardAlpha" operator="arithmetic" k2="-1" k3="1"/>
<feColorMatrix type="matrix" values="0 0 0 0 1 0 0 0 0 0.98102 0 0 0 0 0.823059 0 0 0 1 0"/>
<feBlend mode="normal" in2="shape" result="effect2_innerShadow"/>
<feColorMatrix in="SourceAlpha" type="matrix" values="0 0 0 0 0 0 0 0 0 0 0 0 0 0 0 0 0 0 127 0" result="hardAlpha"/>
<feOffset dy="-5.97333"/>
<feGaussianBlur stdDeviation="2.98667"/>
<feComposite in2="hardAlpha" operator="arithmetic" k2="-1" k3="1"/>
<feColorMatrix type="matrix" values="0 0 0 0 0.925 0 0 0 0 0.856078 0 0 0 0 0.718235 0 0 0 1 0"/>
<feBlend mode="normal" in2="effect2_innerShadow" result="effect3_innerShadow"/>
</filter>
<filter id="filter1_dii" x="0" y="109" width="294" height="166" filterUnits="userSpaceOnUse" color-interpolation-filters="sRGB">
<feFlood flood-opacity="0" result="BackgroundImageFix"/>
<feColorMatrix in="SourceAlpha" type="matrix" values="0 0 0 0 0 0 0 0 0 0 0 0 0 0 0 0 0 0 127 0" result="hardAlpha"/>
<feOffset dy="20"/>
<feGaussianBlur stdDeviation="20"/>
<feColorMatrix type="matrix" values="0 0 0 0 0.2 0 0 0 0 0.2 0 0 0 0 0.2 0 0 0 0.24 0"/>
<feBlend mode="normal" in2="BackgroundImageFix" result="effect1_dropShadow"/>
<feBlend mode="normal" in="SourceGraphic" in2="effect1_dropShadow" result="shape"/>
<feColorMatrix in="SourceAlpha" type="matrix" values="0 0 0 0 0 0 0 0 0 0 0 0 0 0 0 0 0 0 127 0" result="hardAlpha"/>
<feOffset dy="6.22222"/>
<feGaussianBlur stdDeviation="3.11111"/>
<feComposite in2="hardAlpha" operator="arithmetic" k2="-1" k3="1"/>
<feColorMatrix type="matrix" values="0 0 0 0 1 0 0 0 0 1 0 0 0 0 1 0 0 0 1 0"/>
<feBlend mode="normal" in2="shape" result="effect2_innerShadow"/>
<feColorMatrix in="SourceAlpha" type="matrix" values="0 0 0 0 0 0 0 0 0 0 0 0 0 0 0 0 0 0 127 0" result="hardAlpha"/>
<feOffset dy="-6.22222"/>
<feGaussianBlur stdDeviation="3.11111"/>
<feComposite in2="hardAlpha" operator="arithmetic" k2="-1" k3="1"/>
<feColorMatrix type="matrix" values="0 0 0 0 0.925 0 0 0 0 0.925 0 0 0 0 0.925 0 0 0 1 0"/>
<feBlend mode="normal" in2="effect2_innerShadow" result="effect3_innerShadow"/>
</filter>
<filter id="filter2_ii" x="68" y="41.8815" width="163" height="136.237" filterUnits="userSpaceOnUse" color-interpolation-filters="sRGB">
<feFlood flood-opacity="0" result="BackgroundImageFix"/>
<feBlend mode="normal" in="SourceGraphic" in2="BackgroundImageFix" result="shape"/>
<feColorMatrix in="SourceAlpha" type="matrix" values="0 0 0 0 0 0 0 0 0 0 0 0 0 0 0 0 0 0 127 0" result="hardAlpha"/>
<feOffset dy="6.11852"/>
<feGaussianBlur stdDeviation="3.05926"/>
<feComposite in2="hardAlpha" operator="arithmetic" k2="-1" k3="1"/>
<feColorMatrix type="matrix" values="0 0 0 0 1 0 0 0 0 0.935294 0 0 0 0 0.419843 0 0 0 1 0"/>
<feBlend mode="normal" in2="shape" result="effect1_innerShadow"/>
<feColorMatrix in="SourceAlpha" type="matrix" values="0 0 0 0 0 0 0 0 0 0 0 0 0 0 0 0 0 0 127 0" result="hardAlpha"/>
<feOffset dy="-6.11852"/>
<feGaussianBlur stdDeviation="3.05926"/>
<feComposite in2="hardAlpha" operator="arithmetic" k2="-1" k3="1"/>
<feColorMatrix type="matrix" values="0 0 0 0 0.925 0 0 0 0 0.816176 0 0 0 0 0.366373 0 0 0 1 0"/>
<feBlend mode="normal" in2="effect1_innerShadow" result="effect2_innerShadow"/>
</filter>
<filter id="filter3_dii" x="65.4448" y="102.329" width="47.3946" height="47.3946" filterUnits="userSpaceOnUse" color-interpolation-filters="sRGB">
<feFlood flood-opacity="0" result="BackgroundImageFix"/>
<feColorMatrix in="SourceAlpha" type="matrix" values="0 0 0 0 0 0 0 0 0 0 0 0 0 0 0 0 0 0 127 0" result="hardAlpha"/>
<feOffset dy="4.77758"/>
<feGaussianBlur stdDeviation="4.77758"/>
<feColorMatrix type="matrix" values="0 0 0 0 0.2 0 0 0 0 0.2 0 0 0 0 0.2 0 0 0 0.24 0"/>
<feBlend mode="normal" in2="BackgroundImageFix" result="effect1_dropShadow"/>
<feBlend mode="normal" in="SourceGraphic" in2="effect1_dropShadow" result="shape"/>
<feColorMatrix in="SourceAlpha" type="matrix" values="0 0 0 0 0 0 0 0 0 0 0 0 0 0 0 0 0 0 127 0" result="hardAlpha"/>
<feOffset dy="1.48636"/>
<feGaussianBlur stdDeviation="0.743179"/>
<feComposite in2="hardAlpha" operator="arithmetic" k2="-1" k3="1"/>
<feColorMatrix type="matrix" values="0 0 0 0 1 0 0 0 0 1 0 0 0 0 1 0 0 0 1 0"/>
<feBlend mode="normal" in2="shape" result="effect2_innerShadow"/>
<feColorMatrix in="SourceAlpha" type="matrix" values="0 0 0 0 0 0 0 0 0 0 0 0 0 0 0 0 0 0 127 0" result="hardAlpha"/>
<feOffset dy="-1.48636"/>
<feGaussianBlur stdDeviation="0.743179"/>
<feComposite in2="hardAlpha" operator="arithmetic" k2="-1" k3="1"/>
<feColorMatrix type="matrix" values="0 0 0 0 0.925 0 0 0 0 0.925 0 0 0 0 0.925 0 0 0 1 0"/>
<feBlend mode="normal" in2="effect2_innerShadow" result="effect3_innerShadow"/>
</filter>
<filter id="filter4_dii" x="82.4448" y="87.051" width="36.0809" height="36.0809" filterUnits="userSpaceOnUse" color-interpolation-filters="sRGB">
<feFlood flood-opacity="0" result="BackgroundImageFix"/>
<feColorMatrix in="SourceAlpha" type="matrix" values="0 0 0 0 0 0 0 0 0 0 0 0 0 0 0 0 0 0 127 0" result="hardAlpha"/>
<feOffset dy="4.77758"/>
<feGaussianBlur stdDeviation="4.77758"/>
<feColorMatrix type="matrix" values="0 0 0 0 0.2 0 0 0 0 0.2 0 0 0 0 0.2 0 0 0 0.24 0"/>
<feBlend mode="normal" in2="BackgroundImageFix" result="effect1_dropShadow"/>
<feBlend mode="normal" in="SourceGraphic" in2="effect1_dropShadow" result="shape"/>
<feColorMatrix in="SourceAlpha" type="matrix" values="0 0 0 0 0 0 0 0 0 0 0 0 0 0 0 0 0 0 127 0" result="hardAlpha"/>
<feOffset dy="1.48636"/>
<feGaussianBlur stdDeviation="0.743179"/>
<feComposite in2="hardAlpha" operator="arithmetic" k2="-1" k3="1"/>
<feColorMatrix type="matrix" values="0 0 0 0 1 0 0 0 0 1 0 0 0 0 1 0 0 0 1 0"/>
<feBlend mode="normal" in2="shape" result="effect2_innerShadow"/>
<feColorMatrix in="SourceAlpha" type="matrix" values="0 0 0 0 0 0 0 0 0 0 0 0 0 0 0 0 0 0 127 0" result="hardAlpha"/>
<feOffset dy="-1.48636"/>
<feGaussianBlur stdDeviation="0.743179"/>
<feComposite in2="hardAlpha" operator="arithmetic" k2="-1" k3="1"/>
<feColorMatrix type="matrix" values="0 0 0 0 0.925 0 0 0 0 0.925 0 0 0 0 0.925 0 0 0 1 0"/>
<feBlend mode="normal" in2="effect2_innerShadow" result="effect3_innerShadow"/>
</filter>
<filter id="filter5_dii" x="95.8235" y="0.411728" width="90.6309" height="91.1949" filterUnits="userSpaceOnUse" color-interpolation-filters="sRGB">
<feFlood flood-opacity="0" result="BackgroundImageFix"/>
<feColorMatrix in="SourceAlpha" type="matrix" values="0 0 0 0 0 0 0 0 0 0 0 0 0 0 0 0 0 0 127 0" result="hardAlpha"/>
<feOffset dy="12.5883"/>
<feGaussianBlur stdDeviation="12.5883"/>
<feColorMatrix type="matrix" values="0 0 0 0 0.0533333 0 0 0 0 0.159216 0 0 0 0 0.124706 0 0 0 0.24 0"/>
<feBlend mode="normal" in2="BackgroundImageFix" result="effect1_dropShadow"/>
<feBlend mode="normal" in="SourceGraphic" in2="effect1_dropShadow" result="shape"/>
<feColorMatrix in="SourceAlpha" type="matrix" values="0 0 0 0 0 0 0 0 0 0 0 0 0 0 0 0 0 0 127 0" result="hardAlpha"/>
<feOffset dy="3.91635"/>
<feGaussianBlur stdDeviation="1.95818"/>
<feComposite in2="hardAlpha" operator="arithmetic" k2="-1" k3="1"/>
<feColorMatrix type="matrix" values="0 0 0 0 0.309333 0 0 0 0 0.923451 0 0 0 0 0.723294 0 0 0 1 0"/>
<feBlend mode="normal" in2="shape" result="effect2_innerShadow"/>
<feColorMatrix in="SourceAlpha" type="matrix" values="0 0 0 0 0 0 0 0 0 0 0 0 0 0 0 0 0 0 127 0" result="hardAlpha"/>
<feOffset dy="-3.91635"/>
<feGaussianBlur stdDeviation="1.95818"/>
<feComposite in2="hardAlpha" operator="arithmetic" k2="-1" k3="1"/>
<feColorMatrix type="matrix" values="0 0 0 0 0.213333 0 0 0 0 0.636863 0 0 0 0 0.498824 0 0 0 1 0"/>
<feBlend mode="normal" in2="effect2_innerShadow" result="effect3_innerShadow"/>
</filter>
<filter id="filter6_dii" x="111.467" y="25.7333" width="83.9429" height="81.841" filterUnits="userSpaceOnUse" color-interpolation-filters="sRGB">
<feFlood flood-opacity="0" result="BackgroundImageFix"/>
<feColorMatrix in="SourceAlpha" type="matrix" values="0 0 0 0 0 0 0 0 0 0 0 0 0 0 0 0 0 0 127 0" result="hardAlpha"/>
<feOffset dy="12.2667"/>
<feGaussianBlur stdDeviation="12.2667"/>
<feColorMatrix type="matrix" values="0 0 0 0 0.196667 0 0 0 0 0.0966945 0 0 0 0 0.0753889 0 0 0 0.24 0"/>
<feBlend mode="normal" in2="BackgroundImageFix" result="effect1_dropShadow"/>
<feBlend mode="normal" in="SourceGraphic" in2="effect1_dropShadow" result="shape"/>
<feColorMatrix in="SourceAlpha" type="matrix" values="0 0 0 0 0 0 0 0 0 0 0 0 0 0 0 0 0 0 127 0" result="hardAlpha"/>
<feOffset dy="3.8163"/>
<feGaussianBlur stdDeviation="1.90815"/>
<feComposite in2="hardAlpha" operator="arithmetic" k2="-1" k3="1"/>
<feColorMatrix type="matrix" values="0 0 0 0 1 0 0 0 0 0.512481 0 0 0 0 0.399561 0 0 0 1 0"/>
<feBlend mode="normal" in2="shape" result="effect2_innerShadow"/>
<feColorMatrix in="SourceAlpha" type="matrix" values="0 0 0 0 0 0 0 0 0 0 0 0 0 0 0 0 0 0 127 0" result="hardAlpha"/>
<feOffset dy="-3.8163"/>
<feGaussianBlur stdDeviation="1.90815"/>
<feComposite in2="hardAlpha" operator="arithmetic" k2="-1" k3="1"/>
<feColorMatrix type="matrix" values="0 0 0 0 0.909583 0 0 0 0 0.447212 0 0 0 0 0.348674 0 0 0 1 0"/>
<feBlend mode="normal" in2="effect2_innerShadow" result="effect3_innerShadow"/>
</filter>
<filter id="filter7_dii" x="156.074" y="116.839" width="94.0797" height="94.729" filterUnits="userSpaceOnUse" color-interpolation-filters="sRGB">
<feFlood flood-opacity="0" result="BackgroundImageFix"/>
<feColorMatrix in="SourceAlpha" type="matrix" values="0 0 0 0 0 0 0 0 0 0 0 0 0 0 0 0 0 0 127 0" result="hardAlpha"/>
<feOffset dy="12.5883"/>
<feGaussianBlur stdDeviation="12.5883"/>
<feColorMatrix type="matrix" values="0 0 0 0 0.0533333 0 0 0 0 0.159216 0 0 0 0 0.124706 0 0 0 0.24 0"/>
<feBlend mode="normal" in2="BackgroundImageFix" result="effect1_dropShadow"/>
<feBlend mode="normal" in="SourceGraphic" in2="effect1_dropShadow" result="shape"/>
<feColorMatrix in="SourceAlpha" type="matrix" values="0 0 0 0 0 0 0 0 0 0 0 0 0 0 0 0 0 0 127 0" result="hardAlpha"/>
<feOffset dy="3.91635"/>
<feGaussianBlur stdDeviation="1.95818"/>
<feComposite in2="hardAlpha" operator="arithmetic" k2="-1" k3="1"/>
<feColorMatrix type="matrix" values="0 0 0 0 0.309333 0 0 0 0 0.923451 0 0 0 0 0.723294 0 0 0 1 0"/>
<feBlend mode="normal" in2="shape" result="effect2_innerShadow"/>
<feColorMatrix in="SourceAlpha" type="matrix" values="0 0 0 0 0 0 0 0 0 0 0 0 0 0 0 0 0 0 127 0" result="hardAlpha"/>
<feOffset dy="-3.91635"/>
<feGaussianBlur stdDeviation="1.95818"/>
<feComposite in2="hardAlpha" operator="arithmetic" k2="-1" k3="1"/>
<feColorMatrix type="matrix" values="0 0 0 0 0.213333 0 0 0 0 0.636863 0 0 0 0 0.498824 0 0 0 1 0"/>
<feBlend mode="normal" in2="effect2_innerShadow" result="effect3_innerShadow"/>
</filter>
<filter id="filter8_dii" x="138.64" y="138.548" width="88.7987" height="86.5971" filterUnits="userSpaceOnUse" color-interpolation-filters="sRGB">
<feFlood flood-opacity="0" result="BackgroundImageFix"/>
<feColorMatrix in="SourceAlpha" type="matrix" values="0 0 0 0 0 0 0 0 0 0 0 0 0 0 0 0 0 0 127 0" result="hardAlpha"/>
<feOffset dy="12.2667"/>
<feGaussianBlur stdDeviation="12.2667"/>
<feColorMatrix type="matrix" values="0 0 0 0 0.196667 0 0 0 0 0.0966945 0 0 0 0 0.0753889 0 0 0 0.24 0"/>
<feBlend mode="normal" in2="BackgroundImageFix" result="effect1_dropShadow"/>
<feBlend mode="normal" in="SourceGraphic" in2="effect1_dropShadow" result="shape"/>
<feColorMatrix in="SourceAlpha" type="matrix" values="0 0 0 0 0 0 0 0 0 0 0 0 0 0 0 0 0 0 127 0" result="hardAlpha"/>
<feOffset dy="3.8163"/>
<feGaussianBlur stdDeviation="1.90815"/>
<feComposite in2="hardAlpha" operator="arithmetic" k2="-1" k3="1"/>
<feColorMatrix type="matrix" values="0 0 0 0 1 0 0 0 0 0.512481 0 0 0 0 0.399561 0 0 0 1 0"/>
<feBlend mode="normal" in2="shape" result="effect2_innerShadow"/>
<feColorMatrix in="SourceAlpha" type="matrix" values="0 0 0 0 0 0 0 0 0 0 0 0 0 0 0 0 0 0 127 0" result="hardAlpha"/>
<feOffset dy="-3.8163"/>
<feGaussianBlur stdDeviation="1.90815"/>
<feComposite in2="hardAlpha" operator="arithmetic" k2="-1" k3="1"/>
<feColorMatrix type="matrix" values="0 0 0 0 0.909583 0 0 0 0 0.447212 0 0 0 0 0.348674 0 0 0 1 0"/>
<feBlend mode="normal" in2="effect2_innerShadow" result="effect3_innerShadow"/>
</filter>
<filter id="filter9_ii" x="212.5" y="112.76" width="12.5874" height="13.583" filterUnits="userSpaceOnUse" color-interpolation-filters="sRGB">
<feFlood flood-opacity="0" result="BackgroundImageFix"/>
<feBlend mode="normal" in="SourceGraphic" in2="BackgroundImageFix" result="shape"/>
<feColorMatrix in="SourceAlpha" type="matrix" values="0 0 0 0 0 0 0 0 0 0 0 0 0 0 0 0 0 0 127 0" result="hardAlpha"/>
<feOffset dy="0.497778"/>
<feGaussianBlur stdDeviation="0.248889"/>
<feComposite in2="hardAlpha" operator="arithmetic" k2="-1" k3="1"/>
<feColorMatrix type="matrix" values="0 0 0 0 1 0 0 0 0 1 0 0 0 0 1 0 0 0 1 0"/>
<feBlend mode="normal" in2="shape" result="effect1_innerShadow"/>
<feColorMatrix in="SourceAlpha" type="matrix" values="0 0 0 0 0 0 0 0 0 0 0 0 0 0 0 0 0 0 127 0" result="hardAlpha"/>
<feOffset dy="-0.497778"/>
<feGaussianBlur stdDeviation="0.248889"/>
<feComposite in2="hardAlpha" operator="arithmetic" k2="-1" k3="1"/>
<feColorMatrix type="matrix" values="0 0 0 0 0.925 0 0 0 0 0.925 0 0 0 0 0.925 0 0 0 1 0"/>
<feBlend mode="normal" in2="effect1_innerShadow" result="effect2_innerShadow"/>
</filter>
<linearGradient id="paint0_linear" x1="142.724" y1="15.6884" x2="136.754" y2="50.6755" gradientUnits="userSpaceOnUse">
<stop stop-color="#4CE3B2"/>
<stop offset="1" stop-color="#39AB86"/>
</linearGradient>
<linearGradient id="paint1_linear" x1="207.442" y1="132.364" x2="201.903" y2="171.309" gradientUnits="userSpaceOnUse">
<stop stop-color="#4CE3B2"/>
<stop offset="1" stop-color="#39AB86"/>
</linearGradient>
</defs>
</svg>
