<svg xmlns="http://www.w3.org/2000/svg" version="1.1" xmlns:xlink="http://www.w3.org/1999/xlink" xmlns:svgjs="http://svgjs.com/svgjs" width="1440" height="560" preserveAspectRatio="none" viewBox="0 0 1440 560"><g mask="url(&quot;#SvgjsMask1003&quot;)" fill="none"><rect width="1440" height="560" x="0" y="0" fill="rgba(255, 255, 255, 1)"></rect><path d="M759.83 574.62C909.49 524.5 948.14 90.59 1160.28 86.56 1372.41 82.53 1448.16 287.74 1560.72 293.76" stroke="rgba(255, 214, 0, 1)" stroke-width="2"></path><path d="M606.22 575.27C740.97 522.02 683.66 112.3 951.78 109.98 1219.9 107.66 1463.69 298.65 1642.9 300.38" stroke="rgba(255, 214, 0, 1)" stroke-width="2"></path><path d="M146.72 626.95C337.03 621.8 477.51 352.64 853.98 344.6 1230.44 336.56 1374.92 112.46 1561.23 109.4" stroke="rgba(255, 214, 0, 1)" stroke-width="2"></path><path d="M793.28 644.67C926.04 570.88 862.63 124.21 1103.19 122.09 1343.75 119.97 1553.65 390.45 1723 396.49" stroke="rgba(255, 214, 0, 1)" stroke-width="2"></path><path d="M767.15 658.03C859.56 625.76 824.85 353.04 1011.81 352.37 1198.77 351.7 1372.26 512.67 1501.14 514.77" stroke="rgba(255, 214, 0, 1)" stroke-width="2"></path></g><defs><mask id="SvgjsMask1003"><rect width="1440" height="560" fill="#ffffff"></rect></mask></defs></svg>