<svg xmlns="http://www.w3.org/2000/svg" version="1.1" xmlns:xlink="http://www.w3.org/1999/xlink" xmlns:svgjs="http://svgjs.com/svgjs" width="1440" height="1280" preserveAspectRatio="none" viewBox="0 0 1440 1280"><g mask="url(&quot;#SvgjsMask1037&quot;)" fill="none"><rect width="1440" height="1280" x="0" y="0" fill="rgba(255, 214, 0, 1)"></rect><use xlink:href="#SvgjsG1044" transform="translate(0, 0)" fill="rgba(66, 68, 90, 0.13)"></use><use xlink:href="#SvgjsG1044" transform="translate(0, 390)" fill="rgba(66, 68, 90, 0.13)"></use><use xlink:href="#SvgjsG1044" transform="translate(0, 780)" fill="rgba(66, 68, 90, 0.13)"></use><use xlink:href="#SvgjsG1044" transform="translate(0, 1170)" fill="rgba(66, 68, 90, 0.13)"></use><use xlink:href="#SvgjsG1044" transform="translate(390, 0)" fill="rgba(66, 68, 90, 0.13)"></use><use xlink:href="#SvgjsG1044" transform="translate(390, 390)" fill="rgba(66, 68, 90, 0.13)"></use><use xlink:href="#SvgjsG1044" transform="translate(390, 780)" fill="rgba(66, 68, 90, 0.13)"></use><use xlink:href="#SvgjsG1044" transform="translate(390, 1170)" fill="rgba(66, 68, 90, 0.13)"></use><use xlink:href="#SvgjsG1044" transform="translate(780, 0)" fill="rgba(66, 68, 90, 0.13)"></use><use xlink:href="#SvgjsG1044" transform="translate(780, 390)" fill="rgba(66, 68, 90, 0.13)"></use><use xlink:href="#SvgjsG1044" transform="translate(780, 780)" fill="rgba(66, 68, 90, 0.13)"></use><use xlink:href="#SvgjsG1044" transform="translate(780, 1170)" fill="rgba(66, 68, 90, 0.13)"></use><use xlink:href="#SvgjsG1044" transform="translate(1170, 0)" fill="rgba(66, 68, 90, 0.13)"></use><use xlink:href="#SvgjsG1044" transform="translate(1170, 390)" fill="rgba(66, 68, 90, 0.13)"></use><use xlink:href="#SvgjsG1044" transform="translate(1170, 780)" fill="rgba(66, 68, 90, 0.13)"></use><use xlink:href="#SvgjsG1044" transform="translate(1170, 1170)" fill="rgba(66, 68, 90, 0.13)"></use></g><defs><mask id="SvgjsMask1037"><rect width="1440" height="1280" fill="#ffffff"></rect></mask><g id="SvgjsG1039"><path d="M3.898 0s0.232 4.58 4.246 4.192S8.597 0.364 3.898 0m4.203 14.894a2.324 2.324 0 0 1-1.902 0.977c-0.64 0-1.267-0.3-1.689-0.721-0.864-0.943-1.985-3.051-1.986-3.052C1.897 10.822 1.56 9.837 1.56 8.839c0-2.126 1.72-3.968 3.848-3.968 1.05 0 1.996 0.42 2.692 1.099a3.835 3.835 0 0 1 2.69-1.099c2.129 0 3.848 1.842 3.849 3.967 0 0.997-0.334 1.983-0.964 3.259 0 0-1.12 2.108-1.984 3.051-0.423 0.422-1.049 0.722-1.689 0.722a2.321 2.321 0 0 1-1.899-0.977" fill-rule="evenodd"></path></g><g id="SvgjsG1041"><path d="M12.872 14.056H9.025v-5.485L15.968 0H0l7.07 8.528v5.528h-3.773c-1.304 0.003-1.304 1.944 0 1.944H12.872c1.296 0 1.285-1.942 0-1.944zM8.021 4.809c-0.001-0.682 0.553-1.236 1.237-1.237 0.684 0 1.239 0.555 1.236 1.237 0.003 0.687-0.552 1.241-1.236 1.236-0.684 0.004-1.238-0.55-1.237-1.236z"></path></g><g id="SvgjsG1043"><path d="M7.232 1.081a0.289 0.289 0 0 1-0.246-0.285c0-0.109 0.062-0.2 0.148-0.253-0.09-0.05-0.148-0.145-0.148-0.252C6.986 0.129 7.114 0 7.274 0h1.43c0.16 0 0.287 0.129 0.287 0.291 0 0.111-0.062 0.206-0.155 0.253 0.09 0.049 0.156 0.144 0.156 0.253a0.29 0.29 0 0 1-0.246 0.284l1.736 4.746c0.108 0.305 0.164 0.65 0.164 0.993v8.415a0.571 0.571 0 0 1-0.572 0.571H5.9A0.57 0.57 0 0 1 5.332 15.235V6.822c0-0.344 0.056-0.688 0.16-0.995l1.74-4.745z" fill-rule="evenodd"></path></g><g id="SvgjsG1040"><path d="M11.406 2.678H4.629C0.382 2.678 0.682 5.459 0.682 5.459h14.67S15.66 2.678 11.406 2.678zM4.629 13.447h6.777c4.254 0 3.947-2.789 3.946-2.789H0.682s-0.3 2.789 3.947 2.789z m10.087-4.135a1.259 1.259 0 0 0 1.259-1.259c0-0.69-0.562-1.252-1.259-1.252H1.259C0.566 6.801 0 7.363 0 8.052a1.262 1.262 0 0 0 1.259 1.26h13.457z" fill-rule="evenodd"></path></g><g id="SvgjsG1038"><path d="M11.852 2.71c-0.295 0.29-0.694 0.403-1.135 0.403-0.561 0-1.071-0.231-1.365-0.669-0.291 0.446-0.803 0.669-1.371 0.669-0.56 0-1.066-0.236-1.358-0.674-0.291 0.452-0.803 0.674-1.378 0.674-0.414 0-0.795-0.094-1.081-0.352l-0.217-1.574c0.297 0.397 0.769 0.654 1.298 0.654 0.574 0 1.087-0.285 1.378-0.736 0.293 0.437 0.798 0.736 1.359 0.736 0.568 0 1.081-0.285 1.372-0.731 0.293 0.437 0.803 0.731 1.365 0.731 0.572 0 1.078-0.298 1.367-0.749l-0.231 1.617z"></path><path d="M12.267 16L14.746 0 13.077 0.016 10.822 14.313H5.204L2.949 0.016 1.28 0l2.479 16H12.267z"></path></g><g id="SvgjsG1042"><path d="M15.964 4.774l-1.312 10.327H10.223L8.916 4.774h5.408L15.395 1.04 16 1.21l-1.024 3.562 0.988 0.002zM8.29 10.788s0.166-1.502-2.131-1.502H2.5c-2.293 0-2.131 1.502-2.132 1.502h7.922zM0.368 13.595s-0.162 1.506 2.132 1.506h3.659c2.297 0 2.131-1.506 2.131-1.506H0.369z m7.578-0.727a0.68 0.68 0 0 0 0.68-0.68c0-0.372-0.304-0.676-0.68-0.676H0.68C0.306 11.512 0 11.816 0 12.188a0.682 0.682 0 0 0 0.68 0.68h7.266z"></path></g><g id="SvgjsG1044"><use xlink:href="#SvgjsG1038" transform="translate(0, 0) scale(1.5)" fill="rgba(66, 68, 90, 0.13)"></use><use xlink:href="#SvgjsG1039" transform="translate(0, 39) scale(1.5)" fill="rgba(66, 68, 90, 0.13)"></use><use xlink:href="#SvgjsG1040" transform="translate(0, 78) scale(1.5)" fill="rgba(66, 68, 90, 0.13)"></use><use xlink:href="#SvgjsG1041" transform="translate(0, 117) scale(1.5)" fill="rgba(66, 68, 90, 0.13)"></use><use xlink:href="#SvgjsG1042" transform="translate(0, 156) scale(1.5)" fill="rgba(66, 68, 90, 0.13)"></use><use xlink:href="#SvgjsG1038" transform="translate(0, 195) scale(1.5)" fill="rgba(66, 68, 90, 0.13)"></use><use xlink:href="#SvgjsG1043" transform="translate(0, 234) scale(1.5)" fill="rgba(66, 68, 90, 0.13)"></use><use xlink:href="#SvgjsG1039" transform="translate(0, 273) scale(1.5)" fill="rgba(66, 68, 90, 0.13)"></use><use xlink:href="#SvgjsG1039" transform="translate(0, 312) scale(1.5)" fill="rgba(66, 68, 90, 0.13)"></use><use xlink:href="#SvgjsG1042" transform="translate(0, 351) scale(1.5)" fill="rgba(66, 68, 90, 0.13)"></use><use xlink:href="#SvgjsG1043" transform="translate(39, 0) scale(1.5)" fill="rgba(66, 68, 90, 0.13)"></use><use xlink:href="#SvgjsG1042" transform="translate(39, 39) scale(1.5)" fill="rgba(66, 68, 90, 0.13)"></use><use xlink:href="#SvgjsG1040" transform="translate(39, 78) scale(1.5)" fill="rgba(66, 68, 90, 0.13)"></use><use xlink:href="#SvgjsG1040" transform="translate(39, 117) scale(1.5)" fill="rgba(66, 68, 90, 0.13)"></use><use xlink:href="#SvgjsG1038" transform="translate(39, 156) scale(1.5)" fill="rgba(66, 68, 90, 0.13)"></use><use xlink:href="#SvgjsG1038" transform="translate(39, 195) scale(1.5)" fill="rgba(66, 68, 90, 0.13)"></use><use xlink:href="#SvgjsG1039" transform="translate(39, 234) scale(1.5)" fill="rgba(66, 68, 90, 0.13)"></use><use xlink:href="#SvgjsG1043" transform="translate(39, 273) scale(1.5)" fill="rgba(66, 68, 90, 0.13)"></use><use xlink:href="#SvgjsG1040" transform="translate(39, 312) scale(1.5)" fill="rgba(66, 68, 90, 0.13)"></use><use xlink:href="#SvgjsG1039" transform="translate(39, 351) scale(1.5)" fill="rgba(66, 68, 90, 0.13)"></use><use xlink:href="#SvgjsG1038" transform="translate(78, 0) scale(1.5)" fill="rgba(66, 68, 90, 0.13)"></use><use xlink:href="#SvgjsG1041" transform="translate(78, 39) scale(1.5)" fill="rgba(66, 68, 90, 0.13)"></use><use xlink:href="#SvgjsG1041" transform="translate(78, 78) scale(1.5)" fill="rgba(66, 68, 90, 0.13)"></use><use xlink:href="#SvgjsG1040" transform="translate(78, 117) scale(1.5)" fill="rgba(66, 68, 90, 0.13)"></use><use xlink:href="#SvgjsG1038" transform="translate(78, 156) scale(1.5)" fill="rgba(66, 68, 90, 0.13)"></use><use xlink:href="#SvgjsG1043" transform="translate(78, 195) scale(1.5)" fill="rgba(66, 68, 90, 0.13)"></use><use xlink:href="#SvgjsG1043" transform="translate(78, 234) scale(1.5)" fill="rgba(66, 68, 90, 0.13)"></use><use xlink:href="#SvgjsG1041" transform="translate(78, 273) scale(1.5)" fill="rgba(66, 68, 90, 0.13)"></use><use xlink:href="#SvgjsG1040" transform="translate(78, 312) scale(1.5)" fill="rgba(66, 68, 90, 0.13)"></use><use xlink:href="#SvgjsG1038" transform="translate(78, 351) scale(1.5)" fill="rgba(66, 68, 90, 0.13)"></use><use xlink:href="#SvgjsG1040" transform="translate(117, 0) scale(1.5)" fill="rgba(66, 68, 90, 0.13)"></use><use xlink:href="#SvgjsG1043" transform="translate(117, 39) scale(1.5)" fill="rgba(66, 68, 90, 0.13)"></use><use xlink:href="#SvgjsG1043" transform="translate(117, 78) scale(1.5)" fill="rgba(66, 68, 90, 0.13)"></use><use xlink:href="#SvgjsG1043" transform="translate(117, 117) scale(1.5)" fill="rgba(66, 68, 90, 0.13)"></use><use xlink:href="#SvgjsG1043" transform="translate(117, 156) scale(1.5)" fill="rgba(66, 68, 90, 0.13)"></use><use xlink:href="#SvgjsG1043" transform="translate(117, 195) scale(1.5)" fill="rgba(66, 68, 90, 0.13)"></use><use xlink:href="#SvgjsG1041" transform="translate(117, 234) scale(1.5)" fill="rgba(66, 68, 90, 0.13)"></use><use xlink:href="#SvgjsG1038" transform="translate(117, 273) scale(1.5)" fill="rgba(66, 68, 90, 0.13)"></use><use xlink:href="#SvgjsG1043" transform="translate(117, 312) scale(1.5)" fill="rgba(66, 68, 90, 0.13)"></use><use xlink:href="#SvgjsG1042" transform="translate(117, 351) scale(1.5)" fill="rgba(66, 68, 90, 0.13)"></use><use xlink:href="#SvgjsG1041" transform="translate(156, 0) scale(1.5)" fill="rgba(66, 68, 90, 0.13)"></use><use xlink:href="#SvgjsG1038" transform="translate(156, 39) scale(1.5)" fill="rgba(66, 68, 90, 0.13)"></use><use xlink:href="#SvgjsG1042" transform="translate(156, 78) scale(1.5)" fill="rgba(66, 68, 90, 0.13)"></use><use xlink:href="#SvgjsG1043" transform="translate(156, 117) scale(1.5)" fill="rgba(66, 68, 90, 0.13)"></use><use xlink:href="#SvgjsG1043" transform="translate(156, 156) scale(1.5)" fill="rgba(66, 68, 90, 0.13)"></use><use xlink:href="#SvgjsG1043" transform="translate(156, 195) scale(1.5)" fill="rgba(66, 68, 90, 0.13)"></use><use xlink:href="#SvgjsG1043" transform="translate(156, 234) scale(1.5)" fill="rgba(66, 68, 90, 0.13)"></use><use xlink:href="#SvgjsG1043" transform="translate(156, 273) scale(1.5)" fill="rgba(66, 68, 90, 0.13)"></use><use xlink:href="#SvgjsG1042" transform="translate(156, 312) scale(1.5)" fill="rgba(66, 68, 90, 0.13)"></use><use xlink:href="#SvgjsG1038" transform="translate(156, 351) scale(1.5)" fill="rgba(66, 68, 90, 0.13)"></use><use xlink:href="#SvgjsG1042" transform="translate(195, 0) scale(1.5)" fill="rgba(66, 68, 90, 0.13)"></use><use xlink:href="#SvgjsG1038" transform="translate(195, 39) scale(1.5)" fill="rgba(66, 68, 90, 0.13)"></use><use xlink:href="#SvgjsG1042" transform="translate(195, 78) scale(1.5)" fill="rgba(66, 68, 90, 0.13)"></use><use xlink:href="#SvgjsG1041" transform="translate(195, 117) scale(1.5)" fill="rgba(66, 68, 90, 0.13)"></use><use xlink:href="#SvgjsG1041" transform="translate(195, 156) scale(1.5)" fill="rgba(66, 68, 90, 0.13)"></use><use xlink:href="#SvgjsG1038" transform="translate(195, 195) scale(1.5)" fill="rgba(66, 68, 90, 0.13)"></use><use xlink:href="#SvgjsG1038" transform="translate(195, 234) scale(1.5)" fill="rgba(66, 68, 90, 0.13)"></use><use xlink:href="#SvgjsG1043" transform="translate(195, 273) scale(1.5)" fill="rgba(66, 68, 90, 0.13)"></use><use xlink:href="#SvgjsG1041" transform="translate(195, 312) scale(1.5)" fill="rgba(66, 68, 90, 0.13)"></use><use xlink:href="#SvgjsG1042" transform="translate(195, 351) scale(1.5)" fill="rgba(66, 68, 90, 0.13)"></use><use xlink:href="#SvgjsG1040" transform="translate(234, 0) scale(1.5)" fill="rgba(66, 68, 90, 0.13)"></use><use xlink:href="#SvgjsG1042" transform="translate(234, 39) scale(1.5)" fill="rgba(66, 68, 90, 0.13)"></use><use xlink:href="#SvgjsG1043" transform="translate(234, 78) scale(1.5)" fill="rgba(66, 68, 90, 0.13)"></use><use xlink:href="#SvgjsG1040" transform="translate(234, 117) scale(1.5)" fill="rgba(66, 68, 90, 0.13)"></use><use xlink:href="#SvgjsG1042" transform="translate(234, 156) scale(1.5)" fill="rgba(66, 68, 90, 0.13)"></use><use xlink:href="#SvgjsG1040" transform="translate(234, 195) scale(1.5)" fill="rgba(66, 68, 90, 0.13)"></use><use xlink:href="#SvgjsG1038" transform="translate(234, 234) scale(1.5)" fill="rgba(66, 68, 90, 0.13)"></use><use xlink:href="#SvgjsG1038" transform="translate(234, 273) scale(1.5)" fill="rgba(66, 68, 90, 0.13)"></use><use xlink:href="#SvgjsG1041" transform="translate(234, 312) scale(1.5)" fill="rgba(66, 68, 90, 0.13)"></use><use xlink:href="#SvgjsG1038" transform="translate(234, 351) scale(1.5)" fill="rgba(66, 68, 90, 0.13)"></use><use xlink:href="#SvgjsG1038" transform="translate(273, 0) scale(1.5)" fill="rgba(66, 68, 90, 0.13)"></use><use xlink:href="#SvgjsG1040" transform="translate(273, 39) scale(1.5)" fill="rgba(66, 68, 90, 0.13)"></use><use xlink:href="#SvgjsG1041" transform="translate(273, 78) scale(1.5)" fill="rgba(66, 68, 90, 0.13)"></use><use xlink:href="#SvgjsG1043" transform="translate(273, 117) scale(1.5)" fill="rgba(66, 68, 90, 0.13)"></use><use xlink:href="#SvgjsG1041" transform="translate(273, 156) scale(1.5)" fill="rgba(66, 68, 90, 0.13)"></use><use xlink:href="#SvgjsG1041" transform="translate(273, 195) scale(1.5)" fill="rgba(66, 68, 90, 0.13)"></use><use xlink:href="#SvgjsG1041" transform="translate(273, 234) scale(1.5)" fill="rgba(66, 68, 90, 0.13)"></use><use xlink:href="#SvgjsG1038" transform="translate(273, 273) scale(1.5)" fill="rgba(66, 68, 90, 0.13)"></use><use xlink:href="#SvgjsG1043" transform="translate(273, 312) scale(1.5)" fill="rgba(66, 68, 90, 0.13)"></use><use xlink:href="#SvgjsG1040" transform="translate(273, 351) scale(1.5)" fill="rgba(66, 68, 90, 0.13)"></use><use xlink:href="#SvgjsG1038" transform="translate(312, 0) scale(1.5)" fill="rgba(66, 68, 90, 0.13)"></use><use xlink:href="#SvgjsG1042" transform="translate(312, 39) scale(1.5)" fill="rgba(66, 68, 90, 0.13)"></use><use xlink:href="#SvgjsG1043" transform="translate(312, 78) scale(1.5)" fill="rgba(66, 68, 90, 0.13)"></use><use xlink:href="#SvgjsG1043" transform="translate(312, 117) scale(1.5)" fill="rgba(66, 68, 90, 0.13)"></use><use xlink:href="#SvgjsG1040" transform="translate(312, 156) scale(1.5)" fill="rgba(66, 68, 90, 0.13)"></use><use xlink:href="#SvgjsG1039" transform="translate(312, 195) scale(1.5)" fill="rgba(66, 68, 90, 0.13)"></use><use xlink:href="#SvgjsG1039" transform="translate(312, 234) scale(1.5)" fill="rgba(66, 68, 90, 0.13)"></use><use xlink:href="#SvgjsG1043" transform="translate(312, 273) scale(1.5)" fill="rgba(66, 68, 90, 0.13)"></use><use xlink:href="#SvgjsG1041" transform="translate(312, 312) scale(1.5)" fill="rgba(66, 68, 90, 0.13)"></use><use xlink:href="#SvgjsG1040" transform="translate(312, 351) scale(1.5)" fill="rgba(66, 68, 90, 0.13)"></use><use xlink:href="#SvgjsG1042" transform="translate(351, 0) scale(1.5)" fill="rgba(66, 68, 90, 0.13)"></use><use xlink:href="#SvgjsG1041" transform="translate(351, 39) scale(1.5)" fill="rgba(66, 68, 90, 0.13)"></use><use xlink:href="#SvgjsG1038" transform="translate(351, 78) scale(1.5)" fill="rgba(66, 68, 90, 0.13)"></use><use xlink:href="#SvgjsG1041" transform="translate(351, 117) scale(1.5)" fill="rgba(66, 68, 90, 0.13)"></use><use xlink:href="#SvgjsG1041" transform="translate(351, 156) scale(1.5)" fill="rgba(66, 68, 90, 0.13)"></use><use xlink:href="#SvgjsG1038" transform="translate(351, 195) scale(1.5)" fill="rgba(66, 68, 90, 0.13)"></use><use xlink:href="#SvgjsG1042" transform="translate(351, 234) scale(1.5)" fill="rgba(66, 68, 90, 0.13)"></use><use xlink:href="#SvgjsG1040" transform="translate(351, 273) scale(1.5)" fill="rgba(66, 68, 90, 0.13)"></use><use xlink:href="#SvgjsG1040" transform="translate(351, 312) scale(1.5)" fill="rgba(66, 68, 90, 0.13)"></use><use xlink:href="#SvgjsG1040" transform="translate(351, 351) scale(1.5)" fill="rgba(66, 68, 90, 0.13)"></use></g></defs></svg>